<?xml version="1.0" encoding="UTF-8" standalone="no"?>
<!-- Created with Inkscape (http://www.inkscape.org/) -->

<svg
   xmlns:dc="http://purl.org/dc/elements/1.1/"
   xmlns:cc="http://creativecommons.org/ns#"
   xmlns:rdf="http://www.w3.org/1999/02/22-rdf-syntax-ns#"
   xmlns:svg="http://www.w3.org/2000/svg"
   xmlns="http://www.w3.org/2000/svg"
   xmlns:sodipodi="http://sodipodi.sourceforge.net/DTD/sodipodi-0.dtd"
   xmlns:inkscape="http://www.inkscape.org/namespaces/inkscape"
   width="300"
   height="300"
   viewBox="0 0 300 300"
   id="svg4488"
   version="1.1"
   inkscape:version="0.91 r13725"
   sodipodi:docname="return.svg">
  <defs
     id="defs4490" />
  <sodipodi:namedview
     id="base"
     pagecolor="#ffffff"
     bordercolor="#666666"
     borderopacity="1.0"
     inkscape:pageopacity="0.0"
     inkscape:pageshadow="2"
     inkscape:zoom="0.35"
     inkscape:cx="65"
     inkscape:cy="520"
     inkscape:document-units="px"
     inkscape:current-layer="layer1"
     showgrid="false"
     units="px"
     inkscape:window-width="1366"
     inkscape:window-height="719"
     inkscape:window-x="0"
     inkscape:window-y="0"
     inkscape:window-maximized="1" />
  <metadata
     id="metadata4493">
    <rdf:RDF>
      <cc:Work
         rdf:about="">
        <dc:format>image/svg+xml</dc:format>
        <dc:type
           rdf:resource="http://purl.org/dc/dcmitype/StillImage" />
        <dc:title></dc:title>
      </cc:Work>
    </rdf:RDF>
  </metadata>
  <g
     inkscape:label="Layer 1"
     inkscape:groupmode="layer"
     id="layer1"
     transform="translate(0,-752.36216)">
    <path
       style="color:#000000;clip-rule:nonzero;display:inline;overflow:visible;visibility:visible;opacity:1;isolation:auto;mix-blend-mode:normal;color-interpolation:sRGB;color-interpolation-filters:linearRGB;solid-color:#000000;solid-opacity:1;fill:#15a2d6;fill-opacity:1;fill-rule:nonzero;stroke:#3b4d54;stroke-width:3.448807;stroke-miterlimit:4;stroke-dasharray:none;stroke-opacity:1;color-rendering:auto;image-rendering:auto;shape-rendering:auto;text-rendering:auto;enable-background:accumulate"
       d="m 48.003413,902.92028 c 12.970394,-5.02864 12.340594,-3.50814 30.787349,-8.02471 C 52.945978,917.70061 45.242653,939.03742 43.493741,954.99078 25.223059,924.7297 20.043038,920.43374 6.770401,883.28641 17.977339,892.77474 14.939624,890.72 30.729368,900.26765 45.050197,736.49911 282.43812,736.04888 272.10457,891.91174 248.58371,1141.1623 -37.101631,971.26296 141.85606,878.70807 118.72699,908.43031 71.266659,968.79983 137.9606,990.91454 229.70204,1003.0929 262.92284,893.1549 225.83857,845.24269 188.05693,796.42947 93.02202,801.55055 48.003413,902.92028 Z"
       id="rect3614"
       inkscape:connector-curvature="0"
       sodipodi:nodetypes="ccccccccsc" />
    <path
       style="color:#000000;clip-rule:nonzero;display:inline;overflow:visible;visibility:visible;opacity:1;isolation:auto;mix-blend-mode:normal;color-interpolation:sRGB;color-interpolation-filters:linearRGB;solid-color:#000000;solid-opacity:1;fill:#138fbd;fill-opacity:1;fill-rule:nonzero;stroke:#3b4d54;stroke-width:2.30400467;stroke-miterlimit:4;stroke-dasharray:none;stroke-opacity:0;color-rendering:auto;image-rendering:auto;shape-rendering:auto;text-rendering:auto;enable-background:accumulate"
       d="m 10.952173,889.10273 c 8.071073,5.81776 15.157166,10.32223 21.515408,13.85628 1.5386,-80.9859 71.640409,-127.02438 134.379369,-125.23518 47.88914,1.78546 74.62208,25.95159 87.96323,46.2012 35.17679,53.39243 3.06399,126.3113 -3.29873,140.50944 -25.00089,55.78813 -75.67269,59.53623 -100.98458,53.90963 -0.22355,-0.049 -12.8252,-0.089 -35.94903,-16.1267 -22.53714,-15.63036 -27.05697,-33.93755 -28.62466,-41.20092 -0.0396,-0.18361 -3.08756,-17.34743 4.41997,-33.76001 10.24813,-22.40385 43.71613,-45.73636 45.45536,-43.3569 -17.77823,21.82468 -53.44206,54.08507 -38.5453,87.68869 5.44155,7.04881 11.79385,15.31068 22.33957,21.80207 17.06708,10.50567 42.51588,11.48787 44.08838,11.35887 70.49839,-5.78836 81.85797,-64.46142 82.81501,-67.72447 24.13069,-82.27327 -7.96389,-111.28443 -10.2574,-113.6194 C 192.81082,779.16297 126.49836,798.10564 120.63424,801.10934 63.723622,830.25989 30.359734,880.03762 42.278911,949.674 31.676055,936.26038 17.627748,910.92453 10.952173,889.10273 Z"
       id="rect4417"
       inkscape:connector-curvature="0"
       sodipodi:nodetypes="cccssssssccssssscc" />
  </g>
</svg>
