<?xml version="1.0" encoding="UTF-8" standalone="no"?>
<!-- Created with Inkscape (http://www.inkscape.org/) -->

<svg
   xmlns:dc="http://purl.org/dc/elements/1.1/"
   xmlns:cc="http://creativecommons.org/ns#"
   xmlns:rdf="http://www.w3.org/1999/02/22-rdf-syntax-ns#"
   xmlns:svg="http://www.w3.org/2000/svg"
   xmlns="http://www.w3.org/2000/svg"
   xmlns:xlink="http://www.w3.org/1999/xlink"
   xmlns:sodipodi="http://sodipodi.sourceforge.net/DTD/sodipodi-0.dtd"
   xmlns:inkscape="http://www.inkscape.org/namespaces/inkscape"
   width="300"
   height="140"
   viewBox="0 0 300.00001 140.00001"
   id="svg4589"
   version="1.1"
   inkscape:version="0.91 r13725"
   sodipodi:docname="start.svg">
  <defs
     id="defs4591">
    <linearGradient
       inkscape:collect="always"
       xlink:href="#linearGradient4558"
       id="linearGradient4564"
       x1="200.52827"
       y1="570.24805"
       x2="201.12332"
       y2="514.31433"
       gradientUnits="userSpaceOnUse"
       gradientTransform="matrix(0.88371064,0,0,1.7498348,-34.426649,87.455114)" />
    <linearGradient
       inkscape:collect="always"
       id="linearGradient4558">
      <stop
         style="stop-color:#000000;stop-opacity:1;"
         offset="0"
         id="stop4560" />
      <stop
         style="stop-color:#000000;stop-opacity:0;"
         offset="1"
         id="stop4562" />
    </linearGradient>
    <linearGradient
       inkscape:collect="always"
       xlink:href="#linearGradient4507"
       id="linearGradient4513"
       x1="396.35251"
       y1="68.664124"
       x2="396.94754"
       y2="119.39411"
       gradientUnits="userSpaceOnUse"
       gradientTransform="matrix(0.55134882,0,0,1.1101768,-77.815779,829.11181)" />
    <linearGradient
       inkscape:collect="always"
       id="linearGradient4507">
      <stop
         style="stop-color:#ffffff;stop-opacity:1;"
         offset="0"
         id="stop4509" />
      <stop
         style="stop-color:#ffffff;stop-opacity:0;"
         offset="1"
         id="stop4511" />
    </linearGradient>
  </defs>
  <sodipodi:namedview
     id="base"
     pagecolor="#ffffff"
     bordercolor="#666666"
     borderopacity="1.0"
     inkscape:pageopacity="0.0"
     inkscape:pageshadow="2"
     inkscape:zoom="1.4"
     inkscape:cx="176.93612"
     inkscape:cy="119.3004"
     inkscape:document-units="px"
     inkscape:current-layer="layer1"
     showgrid="false"
     units="px"
     inkscape:window-width="1366"
     inkscape:window-height="719"
     inkscape:window-x="0"
     inkscape:window-y="0"
     inkscape:window-maximized="1" />
  <metadata
     id="metadata4594">
    <rdf:RDF>
      <cc:Work
         rdf:about="">
        <dc:format>image/svg+xml</dc:format>
        <dc:type
           rdf:resource="http://purl.org/dc/dcmitype/StillImage" />
        <dc:title></dc:title>
      </cc:Work>
    </rdf:RDF>
  </metadata>
  <g
     inkscape:label="Layer 1"
     inkscape:groupmode="layer"
     id="layer1"
     transform="translate(0,-912.36208)">
    <rect
       style="color:#000000;clip-rule:nonzero;display:inline;overflow:visible;visibility:visible;opacity:1;isolation:auto;mix-blend-mode:normal;color-interpolation:sRGB;color-interpolation-filters:linearRGB;solid-color:#000000;solid-opacity:1;fill:#f2f2f2;fill-opacity:0.35164837;fill-rule:nonzero;stroke:#000000;stroke-width:0.42087698;stroke-miterlimit:4;stroke-dasharray:none;stroke-opacity:0;color-rendering:auto;image-rendering:auto;shape-rendering:auto;text-rendering:auto;enable-background:accumulate"
       id="rect4138"
       width="289.87711"
       height="121.87883"
       x="8.2497921"
       y="925.16779"
       ry="17.749346" />
    <g
       style="font-style:normal;font-weight:normal;font-size:237.5px;line-height:125%;font-family:sans-serif;letter-spacing:0px;word-spacing:0px;display:inline;fill:#006680;fill-opacity:1;stroke:none;stroke-width:1px;stroke-linecap:butt;stroke-linejoin:miter;stroke-opacity:1"
       id="text4136"
       transform="matrix(0.29447978,0,0,0.29447978,-1035.6981,767.68294)">
      <path
         d="m 3814.6653,673.64767 c 0,-6.8875 -1.425,-11.4 -4.275,-13.0625 -2.6125,-1.9 -7.8375,-3.8 -15.4375,-5.7 -7.3625,-2.1375 -13.0625,-3.0875 -16.625,-2.85 l -7.6,0.2375 c -4.9875,0.2375 -7.6,0.2375 -7.8375,0.2375 -2.1375,0 -4.9875,-0.7125 -9.025,-1.9 -4.0375,-1.425 -6.8875,-2.1375 -9.025,-2.1375 -2.6125,0 -5.4625,1.1875 -8.3125,3.8 -0.2375,0.2375 -2.375,2.375 -6.4125,6.8875 -1.6625,1.1875 -4.75,1.9 -9.2625,2.1375 -4.5125,0.2375 -7.6,0.475 -9.025,1.1875 -4.9875,2.1375 -12.1125,11.1625 -21.1375,27.075 -5.4625,9.7375 -8.3125,16.15 -8.3125,19.2375 0,1.9 0.475,4.9875 1.6625,9.2625 1.1875,4.275 2.375,7.125 3.325,8.3125 l 6.8875,4.0375 c 3.0875,1.6625 4.75,3.8 5.4625,6.175 l 1.9,6.65 c 1.1875,2.1375 3.8,3.0875 7.8375,3.0875 0.7125,0 2.375,-0.7125 5.4625,-2.1375 3.0875,-1.425 4.9875,-2.1375 5.4625,-2.1375 2.85,0 8.55,4.5125 9.7375,5.225 l 0.95,0.2375 c 3.8,0.95 7.8375,2.1375 11.875,3.5625 l 21.85,7.6 c 2.6125,1.1875 3.8,3.0875 3.8,6.175 0,2.1375 -1.425,4.75 -4.5125,7.3625 -2.85,2.6125 -5.4625,3.8 -7.6,3.8 -1.1875,0 -5.4625,-1.9 -6.65,-1.9 -1.425,0 -4.0375,0.7125 -7.6,2.375 -3.5625,1.6625 -6.175,2.375 -7.6,2.375 -3.0875,0 -6.175,-1.9 -9.7375,-5.4625 -4.9875,-5.225 -8.075,-8.075 -8.7875,-8.55 -6.175,-2.1375 -11.1625,-3.325 -14.9625,-3.8 -0.95,-0.2375 -6.65,-3.325 -7.6,-3.325 -2.6125,0 -7.3625,5.225 -7.6,7.8375 -0.2375,9.5 -0.2375,19 0,28.5 0,2.85 -1.425,9.2625 -1.425,11.875 0,5.9375 2.6125,8.7875 7.8375,8.7875 2.1375,0 4.75,-1.6625 7.6,-4.75 2.85,-3.0875 4.9875,-4.75 6.175,-4.75 7.8375,4.0375 12.5875,6.175 14.0125,6.175 0.95,0 0.2375,-0.7125 1.1875,-0.7125 1.1875,0 4.0375,-0.7125 5.225,-0.7125 7.8375,0 13.3,2.1375 15.9125,6.4125 0.475,0.7125 1.6625,4.75 3.325,12.1125 1.1875,4.5125 3.5625,6.65 7.6,6.65 4.0375,0 7.3625,-2.1375 9.5,-6.65 l 3.325,-11.4 c 2.1375,-5.225 4.275,-7.8375 6.8875,-7.8375 0.95,0 0.95,0.7125 1.9,0.7125 1.1875,0 4.0375,-1.9 9.025,-5.4625 l 9.2625,-6.65 c 1.1875,1.1875 3.325,2.85 6.4125,4.75 3.325,1.6625 5.7,2.6125 7.125,2.6125 3.5625,0 5.225,-3.8 5.225,-11.1625 l -1.6625,-9.7375 c -1.425,-8.3125 -2.1375,-12.825 -2.1375,-14.0125 0,-7.8375 0,-15.4375 0.2375,-23.275 -0.7125,-9.025 -3.8,-15.675 -9.025,-19.95 l -8.7875,-6.4125 c -5.9375,-4.275 -9.7375,-6.4125 -11.1625,-6.4125 -2.1375,0 -4.9875,0.7125 -9.025,2.375 -4.0375,1.6625 -6.175,2.375 -6.4125,2.375 -0.2375,0 -2.375,-2.375 -5.9375,-7.125 -3.5625,-4.75 -6.175,-7.125 -7.6,-7.125 -0.95,0 -0.475,0.7125 -1.6625,0.7125 -2.375,0 -5.4625,-1.1875 -9.2625,-3.325 -3.8,-2.375 -5.7,-4.75 -5.7,-6.8875 0,-3.0875 2.85,-5.9375 8.55,-9.025 2.375,-1.1875 4.5125,-2.6125 6.175,-4.275 9.2625,-0.7125 16.3875,-1.425 21.375,-1.6625 0.7125,0.95 1.425,5.4625 2.6125,13.3 0.7125,4.75 3.5625,7.125 8.55,7.125 1.6625,-1.6625 3.5625,-4.275 5.7,-7.8375 1.1875,-2.1375 2.375,-3.325 3.5625,-3.0875 l 5.7,12.1125 c 3.325,8.3125 6.175,12.35 8.3125,12.35 3.5625,0 5.7,-2.1375 6.65,-6.4125 0.7125,-8.075 0.7125,-14.0125 0.475,-17.575 0.2375,-1.425 0.7125,-4.275 1.6625,-8.3125 0.95,-3.5625 1.425,-6.4125 1.425,-8.3125 z"
         style="font-style:normal;font-variant:normal;font-weight:normal;font-stretch:normal;font-family:Liquidism;-inkscape-font-specification:Liquidism;fill:#006680"
         id="path4141"
         inkscape:connector-curvature="0" />
      <path
         d="m 3954.6418,669.13517 c 0,-2.6125 -0.7125,-5.4625 -1.9,-8.55 -1.9,-4.9875 -6.175,-7.8375 -12.825,-8.7875 l -17.1,-0.7125 c -2.1375,-0.2375 -5.4625,-0.95 -10.45,-2.6125 -4.9875,-1.6625 -8.55,-2.6125 -10.6875,-2.6125 -0.2375,0 -3.325,1.6625 -9.5,5.225 -5.9375,3.325 -10.45,4.9875 -13.3,4.9875 -1.6625,0 -4.275,-0.475 -7.8375,-1.6625 -3.5625,-1.1875 -5.9375,-1.9 -7.3625,-1.9 -3.5625,0 -12.1125,3.5625 -15.675,3.5625 -1.6625,0 -5.7,-1.425 -7.3625,-1.425 -1.1875,0 -4.0375,-1.425 -4.9875,-1.425 -7.6,0 -11.4,5.225 -11.4,15.675 0,2.85 0.95,9.7375 0.95,12.5875 0,5.4625 0.2375,9.025 0.7125,10.2125 1.6625,4.0375 7.6,9.025 11.6375,9.025 2.1375,0 4.275,-2.1375 6.4125,-6.65 2.1375,-4.5125 3.5625,-6.8875 3.8,-6.8875 2.6125,0 8.075,1.1875 16.15,3.5625 1.6625,0.475 2.375,1.6625 2.375,3.8 0,1.6625 0,3.5625 -0.2375,5.225 0.475,18.7625 1.1875,29.45 1.9,32.5375 0.2375,0.95 0.95,2.6125 2.375,4.9875 1.425,2.375 2.1375,4.0375 2.1375,4.75 0,1.6625 -0.95,4.75 -2.85,9.2625 -1.6625,4.5125 -2.6125,7.6 -2.6125,9.2625 l 1.6625,9.7375 c 0.95,5.7 1.425,10.45 1.6625,14.25 l -0.2375,11.6375 c -0.2375,5.225 0,8.3125 0.475,9.5 0.95,2.375 1.9,3.8 2.85,4.275 l 2.85,0 c 0.95,0 3.0875,-0.7125 4.0375,-0.7125 1.1875,0 2.6125,5.225 4.5125,15.9125 1.9,10.6875 4.0375,15.9125 6.4125,15.9125 4.5125,0 8.3125,-5.9375 11.6375,-17.8125 0.2375,-3.8 0.475,-6.65 0.2375,-8.7875 2.85,-2.85 5.225,-4.75 7.125,-5.9375 3.8,-3.5625 5.7,-9.7375 5.7,-18.525 0,-6.4125 -0.95,-16.15 -2.6125,-29.2125 -1.6625,-13.0625 -2.375,-22.8 -2.375,-29.2125 0,-0.95 0.95,-3.0875 0.95,-3.325 0,-5.4625 -0.2375,-9.2625 -0.475,-10.925 l -0.95,-0.7125 0.95,-0.95 c 0.7125,-0.475 0.95,-1.1875 0.95,-2.1375 0,-0.95 -0.2375,-2.1375 -0.7125,-3.8 -0.95,-3.0875 -0.95,-9.025 -0.2375,-17.3375 0.2375,-3.5625 2.85,-5.225 7.8375,-5.225 1.9,0 3.8,2.85 5.9375,8.55 2.1375,5.4625 3.8,8.3125 4.9875,8.3125 3.5625,0 6.8875,-5.225 9.975,-15.9125 2.6125,-0.2375 4.275,-0.475 5.4625,-0.475 5.9375,-3.5625 9.025,-9.7375 9.025,-18.525 z"
         style="font-style:normal;font-variant:normal;font-weight:normal;font-stretch:normal;font-family:Liquidism;-inkscape-font-specification:Liquidism;fill:#006680"
         id="path4143"
         inkscape:connector-curvature="0" />
      <path
         d="m 4118.4315,780.76017 c 0,-1.6625 -0.7125,-2.375 -1.9,-2.375 -1.1875,-5.4625 -2.85,-9.5 -4.5125,-11.6375 -7.6,-9.7375 -11.6375,-17.8125 -12.35,-23.75 -0.475,-4.9875 -3.5625,-12.35 -9.2625,-22.0875 -6.4125,-11.4 -9.975,-17.8125 -10.45,-19.475 -2.375,-9.5 -4.0375,-18.2875 -5.225,-26.6 -0.2375,-2.375 -3.0875,-7.3625 -8.3125,-14.725 -5.7,-8.075 -10.45,-12.1125 -14.0125,-12.1125 -2.1375,0 -5.4625,0.7125 -9.5,2.1375 -4.0375,1.1875 -7.125,1.9 -9.2625,1.9 -3.5625,0 -12.35,-2.6125 -15.9125,-2.6125 -4.5125,0 -8.3125,0.95 -11.4,2.85 -2.375,3.325 -3.8,5.9375 -4.275,7.8375 2.1375,1.1875 3.325,4.5125 3.325,10.45 l -5.225,20.1875 c -2.1375,7.8375 -3.325,13.3 -4.0375,16.3875 -0.95,3.5625 -3.8,10.2125 -8.55,20.1875 -1.6625,6.4125 -6.4125,15.9125 -14.0125,28.975 l -12.1125,20.6625 c -2.85,6.175 -4.275,9.975 -4.275,11.4 0,0.95 0.7125,2.6125 1.9,5.225 1.1875,2.375 2.375,3.8 3.0875,4.0375 0.2375,0.2375 2.1375,0.475 6.175,1.1875 2.6125,0.475 4.5125,1.425 5.4625,2.85 2.85,7.8375 4.5125,14.0125 5.225,18.525 0.95,2.375 2.85,3.5625 5.7,3.5625 3.0875,0 6.4125,-3.5625 9.5,-10.45 l 4.9875,-11.1625 c 3.5625,-1.6625 6.175,-2.6125 7.8375,-3.0875 3.0875,-2.85 5.4625,-7.125 7.3625,-12.5875 l 3.325,-14.725 c 1.1875,-2.1375 3.325,-3.8 6.4125,-4.9875 2.1375,-0.475 4.5125,-0.95 6.65,-1.6625 l 3.8,6.175 c 1.9,3.0875 3.8,4.75 5.9375,4.75 0.475,0 2.6125,-1.9 6.175,-5.7 3.5625,-4.0375 6.8875,-5.9375 9.5,-5.9375 1.6625,0 2.6125,0.2375 3.0875,0.95 0.7125,1.425 1.1875,2.6125 1.425,3.5625 3.325,4.9875 6.175,8.55 8.55,11.1625 1.6625,2.6125 3.0875,6.4125 4.275,10.925 l 2.6125,11.4 c 0,5.9375 0,9.975 0.2375,12.1125 0.475,6.65 2.1375,9.975 5.225,9.975 3.0875,0 5.9375,-3.5625 8.55,-10.45 2.6125,-7.125 4.5125,-10.6875 5.225,-10.6875 1.1875,0 4.75,4.0375 5.7,4.0375 l 3.325,0 c 4.9875,0 9.2625,-5.7 9.2625,-11.1625 0,-1.425 -0.475,-2.6125 -1.1875,-3.5625 l 4.0375,-1.1875 c -0.2375,-2.85 0,-4.9875 0.2375,-6.175 l 1.6625,-4.5125 z m -69.35,-47.7375 c 0,1.6625 -2.375,3.5625 -6.8875,6.175 -4.5125,2.375 -6.8875,4.5125 -7.125,6.175 -4.0375,-4.275 -6.8875,-6.8875 -9.025,-7.8375 -0.475,-1.425 -0.7125,-2.1375 -0.95,-2.375 0,-3.0875 3.0875,-11.1625 9.2625,-24.4625 0.2375,2.1375 1.9,4.0375 5.225,5.4625 3.325,1.425 4.9875,2.1375 4.9875,2.1375 3.0875,5.4625 4.5125,10.45 4.5125,14.725 z"
         style="font-style:normal;font-variant:normal;font-weight:normal;font-stretch:normal;font-family:Liquidism;-inkscape-font-specification:Liquidism;fill:#006680"
         id="path4145"
         inkscape:connector-curvature="0" />
      <path
         d="m 4263.7889,819.23517 c 0,-3.8 -2.1375,-12.825 -2.1375,-16.625 0,-2.6125 0,-4.9875 0.2375,-6.65 0.475,-5.4625 -1.1875,-11.1625 -4.9875,-17.1 l -10.6875,-13.775 c -2.375,-6.8875 -3.8,-12.35 -4.275,-16.8625 -0.475,-1.1875 -1.9,-2.85 -4.5125,-4.9875 -2.375,-2.1375 -3.5625,-3.5625 -3.5625,-4.275 0,-2.85 6.175,-8.55 18.7625,-17.3375 1.6625,-1.9 3.5625,-6.175 5.225,-13.0625 l 1.425,-5.4625 c 0.7125,-3.0875 1.1875,-4.75 1.1875,-5.4625 0,-1.6625 -0.475,-4.5125 -1.6625,-8.55 -1.1875,-4.0375 -2.1375,-6.8875 -2.85,-8.075 -1.425,-2.1375 -5.7,-6.175 -12.825,-11.875 -6.8875,-5.7 -11.4,-8.55 -13.3,-8.55 -6.4125,0 -9.7375,0 -9.975,0.2375 -4.0375,1.6625 -5.7,2.375 -5.225,2.375 -0.475,0 -2.375,-0.95 -5.9375,-2.85 -3.325,-2.1375 -5.4625,-3.325 -6.175,-3.5625 -6.4125,-2.1375 -11.4,-3.0875 -14.9625,-3.0875 -1.6625,0 -3.325,0.2375 -4.75,0.7125 l -2.1375,-1.9 c -3.5625,1.6625 -6.175,2.6125 -8.075,2.6125 -2.1375,0 -8.075,-1.425 -10.2125,-1.425 -3.5625,0 -12.5875,1.425 -16.15,1.425 -1.1875,0 -1.6625,-1.425 -2.85,-1.425 -0.95,0 -2.6125,0.7125 -5.225,1.9 -5.4625,2.85 -8.075,6.65 -7.6,11.4 l 1.425,17.1 c 0.2375,4.0375 0,8.3125 -0.7125,12.825 -0.2375,1.6625 -1.6625,5.225 -3.8,11.1625 -2.1375,5.9375 -3.325,9.2625 -3.325,10.2125 0,2.85 3.0875,7.6 9.025,14.0125 0.7125,1.9 1.1875,3.8 1.1875,5.4625 0,4.0375 -1.9,13.5375 -1.9,17.3375 -0.2375,4.9875 0.475,9.7375 1.6625,13.775 0.7125,2.6125 0.95,8.7875 0.475,18.2875 -0.7125,11.875 1.1875,17.8125 5.7,17.8125 1.1875,0 0.2375,-0.475 1.425,-0.475 2.375,0 4.5125,1.425 6.65,4.5125 l 1.9,10.45 c 1.1875,6.175 3.325,9.2625 6.4125,9.2625 1.6625,0 3.5625,-0.95 5.7,-2.6125 0.7125,-0.7125 1.425,-2.85 1.9,-6.65 0.7125,-4.0375 1.425,-6.4125 2.6125,-7.125 1.1875,-0.95 3.325,-2.1375 6.8875,-3.5625 1.6625,-0.7125 2.6125,-1.9 3.325,-4.0375 0.475,-0.95 0.95,-2.85 1.1875,-5.4625 -0.2375,-0.2375 -0.2375,-2.6125 -0.2375,-6.8875 0,-4.275 0,-10.6875 0.2375,-19 l -1.6625,-5.4625 c -0.475,-1.6625 -0.475,-4.275 0.2375,-7.8375 0.7125,-3.5625 2.1375,-5.225 3.8,-5.225 1.6625,0 4.75,1.1875 9.025,3.325 4.275,2.1375 7.125,4.0375 8.7875,5.4625 1.9,1.6625 3.0875,8.7875 4.275,10.45 l 3.8,3.8 c 2.6125,2.6125 3.8,4.75 4.0375,6.4125 0.7125,9.5 1.425,14.9625 1.6625,16.625 1.6625,8.55 4.0375,12.825 7.3625,12.825 2.1375,0 5.7,-3.5625 10.6875,-10.6875 8.55,2.375 13.775,4.5125 15.675,6.65 0.95,0.7125 1.425,2.1375 1.425,3.8 l 0,4.275 c 0.7125,4.0375 5.225,9.025 9.2625,9.025 4.75,0 7.125,-2.6125 7.125,-7.6 z m -48.925,-115.9 c 0,2.1375 -0.475,4.275 -1.6625,6.4125 -11.6375,6.8875 -19,10.45 -21.6125,10.45 l -2.375,0 c -2.85,0 -4.75,-0.95 -5.7,-3.0875 -1.425,-3.0875 -2.375,-4.75 -2.6125,-4.9875 l -1.6625,0.7125 c 0,-2.1375 -1.6625,-7.8375 -1.6625,-9.975 0,-0.7125 0.475,-2.1375 1.6625,-4.275 4.5125,0.2375 7.6,-0.2375 9.5,-0.95 2.85,-1.9 4.9875,-3.5625 6.4125,-5.225 0.2375,3.0875 0.7125,6.175 1.1875,9.2625 0.95,3.8 3.0875,5.7 6.175,5.7 l 10.2125,-8.075 c 1.1875,1.1875 1.9,2.375 2.1375,4.0375 z"
         style="font-style:normal;font-variant:normal;font-weight:normal;font-stretch:normal;font-family:Liquidism;-inkscape-font-specification:Liquidism;fill:#006680"
         id="path4147"
         inkscape:connector-curvature="0" />
      <path
         d="m 4402.7375,669.13517 c 0,-2.6125 -0.7125,-5.4625 -1.9,-8.55 -1.9,-4.9875 -6.175,-7.8375 -12.825,-8.7875 l -17.1,-0.7125 c -2.1375,-0.2375 -5.4625,-0.95 -10.45,-2.6125 -4.9875,-1.6625 -8.55,-2.6125 -10.6875,-2.6125 -0.2375,0 -3.325,1.6625 -9.5,5.225 -5.9375,3.325 -10.45,4.9875 -13.3,4.9875 -1.6625,0 -4.275,-0.475 -7.8375,-1.6625 -3.5625,-1.1875 -5.9375,-1.9 -7.3625,-1.9 -3.5625,0 -12.1125,3.5625 -15.675,3.5625 -1.6625,0 -5.7,-1.425 -7.3625,-1.425 -1.1875,0 -4.0375,-1.425 -4.9875,-1.425 -7.6,0 -11.4,5.225 -11.4,15.675 0,2.85 0.95,9.7375 0.95,12.5875 0,5.4625 0.2375,9.025 0.7125,10.2125 1.6625,4.0375 7.6,9.025 11.6375,9.025 2.1375,0 4.275,-2.1375 6.4125,-6.65 2.1375,-4.5125 3.5625,-6.8875 3.8,-6.8875 2.6125,0 8.075,1.1875 16.15,3.5625 1.6625,0.475 2.375,1.6625 2.375,3.8 0,1.6625 0,3.5625 -0.2375,5.225 0.475,18.7625 1.1875,29.45 1.9,32.5375 0.2375,0.95 0.95,2.6125 2.375,4.9875 1.425,2.375 2.1375,4.0375 2.1375,4.75 0,1.6625 -0.95,4.75 -2.85,9.2625 -1.6625,4.5125 -2.6125,7.6 -2.6125,9.2625 l 1.6625,9.7375 c 0.95,5.7 1.425,10.45 1.6625,14.25 l -0.2375,11.6375 c -0.2375,5.225 0,8.3125 0.475,9.5 0.95,2.375 1.9,3.8 2.85,4.275 l 2.85,0 c 0.95,0 3.0875,-0.7125 4.0375,-0.7125 1.1875,0 2.6125,5.225 4.5125,15.9125 1.9,10.6875 4.0375,15.9125 6.4125,15.9125 4.5125,0 8.3125,-5.9375 11.6375,-17.8125 0.2375,-3.8 0.475,-6.65 0.2375,-8.7875 2.85,-2.85 5.225,-4.75 7.125,-5.9375 3.8,-3.5625 5.7,-9.7375 5.7,-18.525 0,-6.4125 -0.95,-16.15 -2.6125,-29.2125 -1.6625,-13.0625 -2.375,-22.8 -2.375,-29.2125 0,-0.95 0.95,-3.0875 0.95,-3.325 0,-5.4625 -0.2375,-9.2625 -0.475,-10.925 l -0.95,-0.7125 0.95,-0.95 c 0.7125,-0.475 0.95,-1.1875 0.95,-2.1375 0,-0.95 -0.2375,-2.1375 -0.7125,-3.8 -0.95,-3.0875 -0.95,-9.025 -0.2375,-17.3375 0.2375,-3.5625 2.85,-5.225 7.8375,-5.225 1.9,0 3.8,2.85 5.9375,8.55 2.1375,5.4625 3.8,8.3125 4.9875,8.3125 3.5625,0 6.8875,-5.225 9.975,-15.9125 2.6125,-0.2375 4.275,-0.475 5.4625,-0.475 5.9375,-3.5625 9.025,-9.7375 9.025,-18.525 z"
         style="font-style:normal;font-variant:normal;font-weight:normal;font-stretch:normal;font-family:Liquidism;-inkscape-font-specification:Liquidism;fill:#006680"
         id="path4149"
         inkscape:connector-curvature="0" />
    </g>
    <path
       style="color:#000000;clip-rule:nonzero;display:inline;overflow:visible;visibility:visible;opacity:1;isolation:auto;mix-blend-mode:normal;color-interpolation:sRGB;color-interpolation-filters:linearRGB;solid-color:#000000;solid-opacity:1;fill:#007b9a;fill-opacity:1;fill-rule:nonzero;stroke:#e9bdac;stroke-width:0.38539448;stroke-miterlimit:4;stroke-dasharray:none;stroke-opacity:0;color-rendering:auto;image-rendering:auto;shape-rendering:auto;text-rendering:auto;enable-background:accumulate"
       d="m 124.93258,964.38005 c -0.059,1.41156 -3.54293,2.40762 -7.9752,2.40762 -4.43227,0 -7.17265,-1.84752 -7.17265,-3.26028 0,-1.41281 1.48642,-2.50792 5.9187,-2.50792 0.85909,0 1.68166,0.47444 2.53053,0.60268 3.53086,0.53354 6.84911,-0.8388 6.69862,2.7579 z"
       id="path4163"
       inkscape:connector-curvature="0"
       sodipodi:nodetypes="ssssss" />
    <path
       style="color:#000000;clip-rule:nonzero;display:inline;overflow:visible;visibility:visible;opacity:1;isolation:auto;mix-blend-mode:normal;color-interpolation:sRGB;color-interpolation-filters:linearRGB;solid-color:#000000;solid-opacity:1;fill:#007b9a;fill-opacity:1;fill-rule:nonzero;stroke:#e9bdac;stroke-width:0.52773499;stroke-miterlimit:4;stroke-dasharray:none;stroke-opacity:0;color-rendering:auto;image-rendering:auto;shape-rendering:auto;text-rendering:auto;enable-background:accumulate"
       inkscape:transform-center-x="2.6082538"
       inkscape:transform-center-y="3.4107917"
       d="m 71.793571,983.95949 c -3.386379,2.76384 -21.354598,-4.08963 -18.255546,-13.30894 1.480686,-4.17354 5.39082,-5.55267 6.77303,-6.10515 3.722468,-1.16099 -2.420578,5.3776 -0.420839,9.94178 2.044495,4.66648 12.18713,7.39634 11.903355,9.47231 z"
       id="path4168"
       inkscape:connector-curvature="0"
       sodipodi:nodetypes="cccsc" />
    <path
       style="color:#000000;clip-rule:nonzero;display:inline;overflow:visible;visibility:visible;opacity:1;isolation:auto;mix-blend-mode:normal;color-interpolation:sRGB;color-interpolation-filters:linearRGB;solid-color:#000000;solid-opacity:1;fill:#007b9a;fill-opacity:1;fill-rule:nonzero;stroke:#e9bdac;stroke-width:0.38539448;stroke-miterlimit:4;stroke-dasharray:none;stroke-opacity:0;color-rendering:auto;image-rendering:auto;shape-rendering:auto;text-rendering:auto;enable-background:accumulate"
       d="m 163.85566,973.50892 c -7.99982,-7.78677 -10.90427,-9.64701 -18.87184,-3.38285 -2.56517,-21.24246 22.95952,-1.91083 18.87184,3.38285 z"
       id="rect4180"
       inkscape:connector-curvature="0"
       sodipodi:nodetypes="ccc" />
    <path
       style="color:#000000;clip-rule:nonzero;display:inline;overflow:visible;visibility:visible;opacity:1;isolation:auto;mix-blend-mode:normal;color-interpolation:sRGB;color-interpolation-filters:linearRGB;solid-color:#000000;solid-opacity:1;fill:#007b9a;fill-opacity:1;fill-rule:nonzero;stroke:#e9bdac;stroke-width:0.43254885;stroke-miterlimit:4;stroke-dasharray:none;stroke-opacity:0;color-rendering:auto;image-rendering:auto;shape-rendering:auto;text-rendering:auto;enable-background:accumulate"
       d="m 226.96134,961.75803 c 4.13633,1.44431 8.27265,1.27457 12.40898,0.85123 6.77693,-2.706 10.41034,-1.37027 14.67892,-0.85123 1.58897,0.19325 2.88935,1.00187 2.88935,2.24636 0,1.24445 -1.29303,2.12841 -2.88935,2.24632 -9.02933,0.66686 -18.05859,1.19217 -27.0879,0 -1.58697,-0.20954 -2.88942,-1.00187 -2.88942,-2.24632 0,-1.24449 1.3782,-2.77401 2.88942,-2.24636 z"
       id="rect4185"
       inkscape:connector-curvature="0"
       sodipodi:nodetypes="scssssss" />
    <path
       style="color:#000000;clip-rule:nonzero;display:inline;overflow:visible;visibility:visible;opacity:1;isolation:auto;mix-blend-mode:normal;color-interpolation:sRGB;color-interpolation-filters:linearRGB;solid-color:#000000;solid-opacity:1;fill:#0082a3;fill-opacity:1;fill-rule:nonzero;stroke:#e9bdac;stroke-width:0.38539448;stroke-miterlimit:4;stroke-dasharray:none;stroke-opacity:0;color-rendering:auto;image-rendering:auto;shape-rendering:auto;text-rendering:auto;enable-background:accumulate"
       inkscape:transform-center-x="0.70934381"
       inkscape:transform-center-y="1.4186911"
       d="m 194.74494,964.14712 c 0.63491,1.45574 -4.29115,1.25389 -6.20398,3.40502 -2.08458,2.34434 -0.59653,29.37157 -3.34878,28.55295 -1.42517,0.2383 -2.2236,-30.07905 -2.27669,-31.52305 -0.053,-1.44399 1.06668,-2.64922 2.51067,-2.7023 l 6.61644,-0.24327 c 1.444,-0.0531 2.64925,1.06666 2.70234,2.51065 z"
       id="rect4220"
       inkscape:connector-curvature="0"
       sodipodi:nodetypes="cscsssc" />
    <rect
       style="color:#000000;clip-rule:nonzero;display:inline;overflow:visible;visibility:visible;opacity:0.82999998;isolation:auto;mix-blend-mode:normal;color-interpolation:sRGB;color-interpolation-filters:linearRGB;solid-color:#000000;solid-opacity:1;fill:url(#linearGradient4513);fill-opacity:1;fill-rule:nonzero;stroke:#e9bdac;stroke-width:1.83102822;stroke-miterlimit:4;stroke-dasharray:none;stroke-opacity:0;color-rendering:auto;image-rendering:auto;shape-rendering:auto;text-rendering:auto;enable-background:accumulate"
       id="rect4489"
       width="288.88162"
       height="34.506069"
       x="8.4970818"
       y="926.30322"
       ry="17.253035" />
    <path
       style="color:#000000;clip-rule:nonzero;display:inline;overflow:visible;visibility:visible;opacity:0.425;isolation:auto;mix-blend-mode:normal;color-interpolation:sRGB;color-interpolation-filters:linearRGB;solid-color:#000000;solid-opacity:1;fill:url(#linearGradient4564);fill-opacity:1;fill-rule:nonzero;stroke:#e9bdac;stroke-width:2.45561409;stroke-miterlimit:4;stroke-dasharray:none;stroke-opacity:0;color-rendering:auto;image-rendering:auto;shape-rendering:auto;text-rendering:auto;enable-background:accumulate"
       d="m 33.42571,986.1067 238.69531,0 c 14.06973,0 24.51921,11.35429 25.39664,25.3966 l 0.63373,10.1422 c 0.41716,6.6762 -0.12092,14.6995 -4.22336,19.3131 -5.9628,6.7057 -12.3668,6.0836 -21.80701,6.0836 l -238.69531,0 c -4.318549,0 -6.210857,0.259 -10.038708,-0.2324 -10.565355,-1.3565 -15.4498863,-10.0765 -15.2376903,-20.2633 0.03204,-1.538 -0.120237,-3.1686 -0.120237,-4.901 l 0,-10.1422 c 0,-14.0697 11.3268983,-25.3966 25.3966353,-25.3966 z"
       id="rect4551"
       inkscape:connector-curvature="0"
       sodipodi:nodetypes="ssssssssssss" />
  </g>
</svg>
