<?xml version="1.0" encoding="UTF-8" standalone="no"?>
<!-- Created with Inkscape (http://www.inkscape.org/) -->

<svg
   xmlns:dc="http://purl.org/dc/elements/1.1/"
   xmlns:cc="http://creativecommons.org/ns#"
   xmlns:rdf="http://www.w3.org/1999/02/22-rdf-syntax-ns#"
   xmlns:svg="http://www.w3.org/2000/svg"
   xmlns="http://www.w3.org/2000/svg"
   xmlns:xlink="http://www.w3.org/1999/xlink"
   xmlns:sodipodi="http://sodipodi.sourceforge.net/DTD/sodipodi-0.dtd"
   xmlns:inkscape="http://www.inkscape.org/namespaces/inkscape"
   id="svg2"
   version="1.1"
   inkscape:version="0.91 r13725"
   xml:space="preserve"
   width="744.09998"
   height="745"
   viewBox="0 0 744.09998 745"
   sodipodi:docname="fish2.svg"><metadata
     id="metadata8"><rdf:RDF><cc:Work
         rdf:about=""><dc:format>image/svg+xml</dc:format><dc:type
           rdf:resource="http://purl.org/dc/dcmitype/StillImage" /><dc:title /></cc:Work></rdf:RDF></metadata><defs
     id="defs6"><linearGradient
       inkscape:collect="always"
       id="linearGradient4209"><stop
         style="stop-color:#164450;stop-opacity:1;"
         offset="0"
         id="stop4211" /><stop
         style="stop-color:#164450;stop-opacity:1"
         offset="1"
         id="stop4213" /></linearGradient><clipPath
       clipPathUnits="userSpaceOnUse"
       id="clipPath16"><path
         d="m 0,596 595.28,0 0,-596 L 0,0 0,596 Z"
         id="path18"
         inkscape:connector-curvature="0" /></clipPath><clipPath
       clipPathUnits="userSpaceOnUse"
       id="clipPath24"><path
         d="m 124.39,410.215 346.5,0 0,-239.25 -346.5,0 0,239.25 z"
         id="path26"
         inkscape:connector-curvature="0" /></clipPath><clipPath
       clipPathUnits="userSpaceOnUse"
       id="clipPath42"><path
         d="m 0,596 595.28,0 0,-596 L 0,0 0,596 Z"
         id="path44"
         inkscape:connector-curvature="0" /></clipPath><clipPath
       clipPathUnits="userSpaceOnUse"
       id="clipPath58"><path
         d="m 0,596 595.28,0 0,-596 L 0,0 0,596 Z"
         id="path60"
         inkscape:connector-curvature="0" /></clipPath><clipPath
       clipPathUnits="userSpaceOnUse"
       id="clipPath66"><path
         d="m 82.39,485.625 490.5,0 0,-348.75 -490.5,0 0,348.75 z"
         id="path68"
         inkscape:connector-curvature="0" /></clipPath><clipPath
       clipPathUnits="userSpaceOnUse"
       id="clipPath84"><path
         d="m 0,596 595.28,0 0,-596 L 0,0 0,596 Z"
         id="path86"
         inkscape:connector-curvature="0" /></clipPath><clipPath
       clipPathUnits="userSpaceOnUse"
       id="clipPath96"><path
         d="m 0,596 595.28,0 0,-596 L 0,0 0,596 Z"
         id="path98"
         inkscape:connector-curvature="0" /></clipPath><clipPath
       clipPathUnits="userSpaceOnUse"
       id="clipPath104"><path
         d="m 170.249,305.25 186.489,0 0,-102.031 -186.489,0 0,102.031 z"
         id="path106"
         inkscape:connector-curvature="0" /></clipPath><clipPath
       clipPathUnits="userSpaceOnUse"
       id="clipPath120"><path
         d="m 0,596 595.28,0 0,-596 L 0,0 0,596 Z"
         id="path122"
         inkscape:connector-curvature="0" /></clipPath><clipPath
       clipPathUnits="userSpaceOnUse"
       id="clipPath140"><path
         d="m 0,596 595.28,0 0,-596 L 0,0 0,596 Z"
         id="path142"
         inkscape:connector-curvature="0" /></clipPath><linearGradient
       inkscape:collect="always"
       xlink:href="#linearGradient4209"
       id="linearGradient4215"
       x1="546.88416"
       y1="298.56393"
       x2="560.27728"
       y2="588.74738"
       gradientUnits="userSpaceOnUse" /></defs><sodipodi:namedview
     pagecolor="#ffffff"
     bordercolor="#666666"
     borderopacity="1"
     objecttolerance="10"
     gridtolerance="10"
     guidetolerance="10"
     inkscape:pageopacity="0"
     inkscape:pageshadow="2"
     inkscape:window-width="1366"
     inkscape:window-height="719"
     id="namedview4"
     showgrid="false"
     inkscape:zoom="0.11199812"
     inkscape:cx="-1020.6004"
     inkscape:cy="560.06952"
     inkscape:window-x="0"
     inkscape:window-y="0"
     inkscape:window-maximized="1"
     inkscape:current-layer="layer5" /><g
     inkscape:groupmode="layer"
     id="layer4"
     inkscape:label="drugi 2"
     style="display:inline" /><g
     inkscape:groupmode="layer"
     id="layer3"
     inkscape:label="drugi 1"
     style="display:inline"><path
       style="color:#000000;clip-rule:nonzero;display:inline;overflow:visible;visibility:visible;opacity:1;isolation:auto;mix-blend-mode:normal;color-interpolation:sRGB;color-interpolation-filters:linearRGB;solid-color:#000000;solid-opacity:1;fill:#e3e2db;fill-opacity:1;fill-rule:nonzero;stroke:#000000;stroke-width:5.69375372;stroke-miterlimit:4;stroke-dasharray:none;stroke-opacity:0;color-rendering:auto;image-rendering:auto;shape-rendering:auto;text-rendering:auto;enable-background:accumulate"
       d="m 209.93643,540.4284 c 32.84231,26.347 30.40723,38.32033 74.9668,49.25565 -2.55701,-15.81953 -33.22265,-20.80133 -27.67634,-90.65111 33.02238,35.98673 56.25312,38.25935 83.45696,41.73187 -13.17361,-29.48829 -24.91776,-60.14408 -14.03598,-109.28004 12.41866,39.55854 35.11073,60.61495 55.92653,85.05049 -11.25281,-41.39021 -28.21255,-79.92695 -29.11418,-126.49274 29.46542,45.30767 70.09534,53.33611 97.94193,59.55762 l 11.98904,126.48714 C 360.12289,675.71673 220.64805,643.40896 209.93643,540.4284 Z"
       id="rect5163"
       inkscape:connector-curvature="0"
       sodipodi:nodetypes="cccccccccc" /><path
       style="color:#000000;clip-rule:nonzero;display:inline;overflow:visible;visibility:visible;opacity:1;isolation:auto;mix-blend-mode:normal;color-interpolation:sRGB;color-interpolation-filters:linearRGB;solid-color:#000000;solid-opacity:1;fill:#e3e2db;fill-opacity:1;fill-rule:nonzero;stroke:#000000;stroke-width:5.69375372;stroke-miterlimit:4;stroke-dasharray:none;stroke-opacity:0;color-rendering:auto;image-rendering:auto;shape-rendering:auto;text-rendering:auto;enable-background:accumulate"
       d="m 210.18711,248.1446 c 28.85056,-30.6664 24.7708,-42.1836 67.37184,-59.22143 -0.32768,16.0215 -29.99995,25.22782 -14.77447,93.62328 27.68562,-40.23715 50.37304,-45.72472 76.82759,-52.95409 -8.93601,31.03627 -16.29385,63.02948 1.32866,110.16972 6.7852,-40.90307 26.32176,-64.91612 43.52947,-92.01383 18.00367,52.35814 -10.22702,91.57879 -21.32617,124.75209 65.01734,-13.02341 90.13219,-107.24873 93.05618,-194.9846 -116.14375,-84.267452 -249.7559,-32.83963 -246.0131,70.62886 z"
       id="rect5163-9"
       inkscape:connector-curvature="0"
       sodipodi:nodetypes="ccccccccc" /></g><g
     id="g10"
     inkscape:groupmode="layer"
     inkscape:label="drugi"
     transform="matrix(1.25,0,0,-1.25,0,745)"
     style="display:inline"><g
       id="g12"><g
         id="g14"
         clip-path="url(#clipPath16)"><g
           id="g20"><g
             id="g22" /><g
             id="g28"><g
               clip-path="url(#clipPath24)"
               id="g30"
               style="opacity:0.38999903"><g
                 id="g32"><g
                   transform="matrix(346.5,0,0,239.25,124.39,170.96481)"
                   id="g34" /></g></g></g></g></g></g><g
       id="g38"
       inkscape:export-filename="/home/marszka/Dokumenty/EGU JAM/v.png"
       inkscape:export-xdpi="90"
       inkscape:export-ydpi="90"
       transform="matrix(2.3692229,0,0,2.3692229,-320.88863,-410.7369)"><g
         id="g40"
         clip-path="url(#clipPath42)"><g
           id="g46"
           transform="translate(366.8394,306.7531)"><path
             d="m 0,0 c 7.824,8.909 11.075,18.519 7.223,22.372 -3.316,3.315 -10.899,1.364 -18.627,-4.228 -11.676,40.762 -49.219,70.596 -93.733,70.596 -53.844,0 9.376896,-49.425751 9.376896,-103.269751 0,-53.844 -63.220896,-91.716249 -9.376896,-91.716249 50.117,0 91.394,37.818 96.869,86.472 10.109,-2.797 19.195,-1.261 21.036,3.882 C 14.543,-10.933 8.994,-4.283 0,0"
             style="fill:#15a2d6;fill-opacity:1;fill-rule:nonzero;stroke:none"
             id="path48"
             inkscape:connector-curvature="0"
             sodipodi:nodetypes="cccsssccc" /></g><g
           id="g50"
           transform="translate(366.8394,306.7531)"><path
             d="m 0,0 c 7.824,8.909 11.075,18.519 7.223,22.372 -3.316,3.315 -10.899,1.364 -18.627,-4.228 -11.676,40.762 -49.219,70.596 -93.733,70.596 -53.844,0 8.8955,-47.500167 8.8955,-101.344167 0,-53.844 -62.7395,-93.641833 -8.8955,-93.641833 50.117,0 91.394,37.818 96.869,86.472 10.109,-2.797 19.195,-1.261 21.036,3.882 C 14.543,-10.933 8.994,-4.283 0,0 Z"
             style="fill:none;stroke:#3b4d54;stroke-width:6;stroke-linecap:butt;stroke-linejoin:miter;stroke-miterlimit:10;stroke-dasharray:none;stroke-opacity:1"
             id="path52"
             inkscape:connector-curvature="0"
             sodipodi:nodetypes="cccsssccc" /></g></g></g><g
       id="g54"><g
         id="g56"
         clip-path="url(#clipPath58)"><g
           id="g62"><g
             id="g64" /><g
             id="g70"><g
               clip-path="url(#clipPath66)"
               id="g72"
               style="opacity:0.14999402"><g
                 id="g74"><g
                   transform="matrix(490.5,0,0,348.75,82.389999,136.875)"
                   id="g76" /></g></g></g></g></g></g><g
       id="g80"
       transform="matrix(0.82740895,0.6300383,-0.6300383,0.82740895,270.8342,-261.54881)"><g
         id="g82"
         clip-path="url(#clipPath84)"
         transform="translate(21.557081,10.389541)"><g
           id="g88"
           transform="translate(288.2175,206.6358)"><path
             d="M -3.7721733,-19.096544 C -96.210601,-1.5000804 -125.23281,49.776336 -121.6115,55.43434 c 6.36104,14.285761 33.359486,23.513538 33.690695,23.867855"
             style="fill:#d4e6e6;fill-opacity:1;fill-rule:nonzero;stroke:none"
             id="path90"
             inkscape:connector-curvature="0"
             sodipodi:nodetypes="ccc" /></g></g></g><g
       id="g92"
       transform="matrix(2.3599542,0.20936416,-0.20936416,2.3599542,-231.95738,-522.5547)"><g
         id="g94"
         clip-path="url(#clipPath96)"><g
           id="g100"><g
             id="g102" /><g
             id="g108"><g
               clip-path="url(#clipPath104)"
               id="g110"
               style="opacity:0.119995"><g
                 transform="translate(266.6658,224.613)"
                 id="g112"><path
                   d="M -32.039515,28.287014 C -38.210823,21.277871 -39.894787,16.089711 -39.454011,11.067051 -5.0721121,-14.510337 92.804381,25.646065 80.494128,111.47278 69.641768,60.299021 21.817956,12.5908 -32.016955,28.541313"
                   style="fill:#000000;fill-opacity:1;fill-rule:nonzero;stroke:none"
                   id="path114"
                   inkscape:connector-curvature="0"
                   sodipodi:nodetypes="cccc" /></g></g></g></g></g></g><g
       id="g116"
       transform="matrix(2.3692229,0,0,2.3692229,-320.88863,-410.7369)"><g
         id="g118"
         clip-path="url(#clipPath120)"><g
           id="g124"
           transform="translate(272.6795,284.3333)"><path
             d="m 44.769821,29.365152 c 0,-10.527 -8.533,-19.06 -19.06,-19.06 -10.526,0 -19.0599998,8.533 -19.0599998,19.06 0,10.526 8.5339998,19.06 19.0599998,19.06 10.527,0 19.06,-8.534 19.06,-19.06"
             style="fill:#ffffff;fill-opacity:1;fill-rule:nonzero;stroke:none"
             id="path126"
             inkscape:connector-curvature="0" /></g><g
           id="g128"
           transform="translate(267.4583,284.7083)"><path
             d="m 44.769821,29.365152 c 0,-7.434 -6.026,-13.46 -13.46,-13.46 -7.433,0 -13.459,6.026 -13.459,13.46 0,7.434 6.026,13.46 13.459,13.46 7.434,0 13.46,-6.026 13.46,-13.46"
             style="fill:#3b4d54;fill-opacity:1;fill-rule:nonzero;stroke:none"
             id="path130"
             inkscape:connector-curvature="0" /></g><g
           id="g132"
           transform="translate(265.6755,291.4748)"><path
             d="m 44.769821,29.365152 c 0,-2.822 -2.288,-5.109 -5.109,-5.109 -2.822,0 -5.11,2.287 -5.11,5.109 0,2.822 2.288,5.109 5.11,5.109 2.821,0 5.109,-2.287 5.109,-5.109"
             style="fill:#ffffff;fill-opacity:1;fill-rule:nonzero;stroke:none"
             id="path134"
             inkscape:connector-curvature="0" /></g></g></g><g
       id="g136"
       transform="matrix(2.6230215,0,0,2.6230215,-411.90903,-472.50863)"><g
         id="g138"
         clip-path="url(#clipPath140)"><g
           id="g144"
           transform="translate(192.9201,258.5092)" /></g></g></g><g
     inkscape:groupmode="layer"
     id="layer5"
     inkscape:label="maska'"
     style="display:inline"><path
       style="color:#000000;clip-rule:nonzero;display:inline;overflow:visible;visibility:visible;opacity:1;isolation:auto;mix-blend-mode:normal;color-interpolation:sRGB;color-interpolation-filters:linearRGB;solid-color:#000000;solid-opacity:1;fill:#dbe2e3;fill-opacity:0.29670332;fill-rule:nonzero;stroke:#000000;stroke-width:7.4560113;stroke-miterlimit:4;stroke-dasharray:none;stroke-opacity:0;color-rendering:auto;image-rendering:auto;shape-rendering:auto;text-rendering:auto;enable-background:accumulate"
       d="m 565.51054,379.81823 c 0,174.36638 -56.67154,313.70206 -231.03792,313.70206 -174.36638,0 -315.71827,-141.35187 -315.71827,-315.71825 -3e-6,-174.36638 141.35189,-315.718276 315.71827,-315.718274 174.36638,0 231.03792,143.368084 231.03792,317.734464 z"
       id="path5226"
       inkscape:connector-curvature="0"
       sodipodi:nodetypes="sssss" /><path
       style="color:#000000;clip-rule:nonzero;display:inline;overflow:visible;visibility:visible;opacity:1;isolation:auto;mix-blend-mode:normal;color-interpolation:sRGB;color-interpolation-filters:linearRGB;solid-color:#000000;solid-opacity:1;fill:url(#linearGradient4215);fill-opacity:1;fill-rule:nonzero;stroke:#000000;stroke-width:7.18980551;stroke-miterlimit:4;stroke-dasharray:none;stroke-opacity:0;color-rendering:auto;image-rendering:auto;shape-rendering:auto;text-rendering:auto;enable-background:accumulate"
       d="m 437.89859,83.643096 c 34.51097,2.577331 31.44988,5.724568 64.02407,21.859394 78.59058,113.06661 152.40729,356.06848 9.28782,533.0713 -16.63279,17.31761 -24.5614,23.55824 -64.97715,29.7259 C 610.13167,463.56824 557.41758,277.80546 437.89859,83.643096 Z"
       id="rect5241"
       inkscape:connector-curvature="0"
       sodipodi:nodetypes="ccccc" /></g></svg>