<?xml version="1.0" encoding="UTF-8" standalone="no"?>
<!-- Created with Inkscape (http://www.inkscape.org/) -->

<svg
   xmlns:dc="http://purl.org/dc/elements/1.1/"
   xmlns:cc="http://creativecommons.org/ns#"
   xmlns:rdf="http://www.w3.org/1999/02/22-rdf-syntax-ns#"
   xmlns:svg="http://www.w3.org/2000/svg"
   xmlns="http://www.w3.org/2000/svg"
   xmlns:xlink="http://www.w3.org/1999/xlink"
   xmlns:sodipodi="http://sodipodi.sourceforge.net/DTD/sodipodi-0.dtd"
   xmlns:inkscape="http://www.inkscape.org/namespaces/inkscape"
   id="svg2"
   version="1.1"
   inkscape:version="0.91 r13725"
   xml:space="preserve"
   width="744.09998"
   height="745"
   viewBox="0 0 744.09998 745"
   sodipodi:docname="fish2_1.svg"><metadata
     id="metadata8"><rdf:RDF><cc:Work
         rdf:about=""><dc:format>image/svg+xml</dc:format><dc:type
           rdf:resource="http://purl.org/dc/dcmitype/StillImage" /><dc:title /></cc:Work></rdf:RDF></metadata><defs
     id="defs6"><clipPath
       clipPathUnits="userSpaceOnUse"
       id="clipPath16"><path
         d="m 0,596 595.28,0 0,-596 L 0,0 0,596 Z"
         id="path18"
         inkscape:connector-curvature="0" /></clipPath><clipPath
       clipPathUnits="userSpaceOnUse"
       id="clipPath24"><path
         d="m 124.39,410.215 346.5,0 0,-239.25 -346.5,0 0,239.25 z"
         id="path26"
         inkscape:connector-curvature="0" /></clipPath><clipPath
       clipPathUnits="userSpaceOnUse"
       id="clipPath42"><path
         d="m 0,596 595.28,0 0,-596 L 0,0 0,596 Z"
         id="path44"
         inkscape:connector-curvature="0" /></clipPath><clipPath
       clipPathUnits="userSpaceOnUse"
       id="clipPath58"><path
         d="m 0,596 595.28,0 0,-596 L 0,0 0,596 Z"
         id="path60"
         inkscape:connector-curvature="0" /></clipPath><clipPath
       clipPathUnits="userSpaceOnUse"
       id="clipPath66"><path
         d="m 82.39,485.625 490.5,0 0,-348.75 -490.5,0 0,348.75 z"
         id="path68"
         inkscape:connector-curvature="0" /></clipPath><clipPath
       clipPathUnits="userSpaceOnUse"
       id="clipPath84"><path
         d="m 0,596 595.28,0 0,-596 L 0,0 0,596 Z"
         id="path86"
         inkscape:connector-curvature="0" /></clipPath><clipPath
       clipPathUnits="userSpaceOnUse"
       id="clipPath96"><path
         d="m 0,596 595.28,0 0,-596 L 0,0 0,596 Z"
         id="path98"
         inkscape:connector-curvature="0" /></clipPath><clipPath
       clipPathUnits="userSpaceOnUse"
       id="clipPath104"><path
         d="m 170.249,305.25 186.489,0 0,-102.031 -186.489,0 0,102.031 z"
         id="path106"
         inkscape:connector-curvature="0" /></clipPath><clipPath
       clipPathUnits="userSpaceOnUse"
       id="clipPath120"><path
         d="m 0,596 595.28,0 0,-596 L 0,0 0,596 Z"
         id="path122"
         inkscape:connector-curvature="0" /></clipPath><clipPath
       clipPathUnits="userSpaceOnUse"
       id="clipPath140"><path
         d="m 0,596 595.28,0 0,-596 L 0,0 0,596 Z"
         id="path142"
         inkscape:connector-curvature="0" /></clipPath><linearGradient
       gradientTransform="matrix(0.96180833,0,0,1.057946,-6.6075037,-33.724874)"
       inkscape:collect="always"
       xlink:href="#linearGradient4209"
       id="linearGradient4215"
       x1="546.88416"
       y1="298.56393"
       x2="560.27728"
       y2="588.74738"
       gradientUnits="userSpaceOnUse" /><linearGradient
       inkscape:collect="always"
       id="linearGradient4209"><stop
         style="stop-color:#164450;stop-opacity:1;"
         offset="0"
         id="stop4211" /><stop
         style="stop-color:#164450;stop-opacity:1"
         offset="1"
         id="stop4213" /></linearGradient></defs><sodipodi:namedview
     pagecolor="#ffffff"
     bordercolor="#666666"
     borderopacity="1"
     objecttolerance="10"
     gridtolerance="10"
     guidetolerance="10"
     inkscape:pageopacity="0"
     inkscape:pageshadow="2"
     inkscape:window-width="1366"
     inkscape:window-height="719"
     id="namedview4"
     showgrid="false"
     inkscape:zoom="0.89598497"
     inkscape:cx="360.04569"
     inkscape:cy="324.37393"
     inkscape:window-x="0"
     inkscape:window-y="0"
     inkscape:window-maximized="1"
     inkscape:current-layer="g10" /><g
     inkscape:groupmode="layer"
     id="layer3"
     inkscape:label="zeby"
     style="display:inline"><path
       style="color:#000000;clip-rule:nonzero;display:inline;overflow:visible;visibility:visible;opacity:1;isolation:auto;mix-blend-mode:normal;color-interpolation:sRGB;color-interpolation-filters:linearRGB;solid-color:#000000;solid-opacity:1;fill:#e3e2db;fill-opacity:1;fill-rule:nonzero;stroke:#000000;stroke-width:5.6937542;stroke-miterlimit:4;stroke-dasharray:none;stroke-opacity:0;color-rendering:auto;image-rendering:auto;shape-rendering:auto;text-rendering:auto;enable-background:accumulate"
       d="m 99.966506,369.07638 c 2.925534,42.00266 -7.52281,48.33687 14.674454,88.49181 9.88714,-12.61112 -7.25773,-38.51968 47.8207,-81.83388 -4.0342,48.67491 10.05685,67.28336 25.96189,89.62472 12.72627,-29.68408 27.28006,-59.1101 70.76073,-84.45149 -20.63663,35.96152 -20.71067,66.91788 -24.54014,98.78837 22.77324,-36.34769 39.57834,-74.95212 73.17652,-107.20656 -13.2951,52.38547 8.3717,87.68132 22.6932,112.35985 l -84.79069,94.62172 C 102.46847,571.19675 31.578366,446.81181 99.966506,369.07638 Z"
       id="rect5163"
       inkscape:connector-curvature="0"
       sodipodi:nodetypes="cccccccccc" /><path
       style="color:#000000;clip-rule:nonzero;display:inline;overflow:visible;visibility:visible;opacity:1;isolation:auto;mix-blend-mode:normal;color-interpolation:sRGB;color-interpolation-filters:linearRGB;solid-color:#000000;solid-opacity:1;fill:#e3e2db;fill-opacity:1;fill-rule:nonzero;stroke:#000000;stroke-width:5.6937542;stroke-miterlimit:4;stroke-dasharray:none;stroke-opacity:0;color-rendering:auto;image-rendering:auto;shape-rendering:auto;text-rendering:auto;enable-background:accumulate"
       d="m 55.324848,342.14864 c 28.85056,-30.66639 24.7708,-42.18359 67.371852,-59.22142 -0.32769,16.0215 -29.999952,25.22781 -14.77448,93.62327 27.68563,-40.23715 50.37304,-45.72472 76.82759,-52.95408 -8.93601,31.03626 -16.29385,63.02947 1.32866,110.16971 6.7852,-40.90307 26.32176,-64.91612 43.52946,-92.01383 18.00368,52.35814 -10.22701,91.57879 -21.32616,124.75209 65.01736,-13.02341 90.13216,-107.24873 93.05616,-194.9846 C 185.1942,187.25233 51.582048,238.68016 55.324848,342.14864 Z"
       id="rect5163-9"
       inkscape:connector-curvature="0"
       sodipodi:nodetypes="ccccccccc" /></g><g
     id="g10"
     inkscape:groupmode="layer"
     inkscape:label="drugi"
     transform="matrix(1.25,0,0,-1.25,0,745)"><g
       id="g12"
       transform="matrix(0.95462518,0,0,0.95462518,17.387983,7.494615)"><g
         id="g14"
         clip-path="url(#clipPath16)"><g
           id="g20"><g
             id="g22" /><g
             id="g28"><g
               clip-path="url(#clipPath24)"
               id="g30"
               style="opacity:0.38999903"><g
                 id="g32"><g
                   transform="matrix(346.5,0,0,239.25,124.39,170.96481)"
                   id="g34" /></g></g></g></g></g></g><g
       id="g38"
       inkscape:export-filename="/home/marszka/Dokumenty/EGU JAM/v.png"
       inkscape:export-xdpi="90"
       inkscape:export-ydpi="90"
       transform="matrix(2.5040024,0,0,2.5040024,-375.83074,-443.57402)"><g
         id="g40"
         clip-path="url(#clipPath42)"><g
           id="g46"
           transform="translate(366.8394,306.7531)"><path
             d="m 0,0 c 7.824,8.909 11.075,18.519 7.223,22.372 -3.316,3.315 -10.899,1.364 -18.627,-4.228 -11.676,40.762 -49.219,70.596 -93.733,70.596 -43.80934,0 -80.86958,-28.895695 -93.16148,-68.667851 -2.8155,-9.109928 58.70316,-31.901705 58.70316,-41.936362 0,-9.580967 -61.65265,-5.727923 -59.07706,-14.474814 11.89893,-40.409691 49.27235,-69.906973 93.53538,-69.906973 50.117,0 91.394,37.818 96.869,86.472 10.109,-2.797 19.195,-1.261 21.036,3.882 C 14.543,-10.933 8.994,-4.283 0,0"
             style="fill:#15a2d6;fill-opacity:1;fill-rule:nonzero;stroke:none"
             id="path48"
             inkscape:connector-curvature="0"
             sodipodi:nodetypes="cccsssssccc" /></g><g
           id="g50"
           transform="translate(366.8394,306.7531)"><path
             d="m 0,0 c 7.824,8.909 11.075,18.519 7.223,22.372 -3.316,3.315 -10.899,1.364 -18.627,-4.228 -11.676,40.762 -49.219,70.596 -93.733,70.596 -42.4915,0 -78.63384,-27.183404 -91.98547,-65.108676 -3.56717,-10.132534 59.03308,-34.938367 59.03308,-46.290865 0,-9.81538 -63.09012,-5.385433 -60.3918,-14.320584 12.10379,-40.080196 49.31557,-69.265875 93.34419,-69.265875 50.117,0 91.394,37.818 96.869,86.472 10.109,-2.797 19.195,-1.261 21.036,3.882 C 14.543,-10.933 8.994,-4.283 0,0 Z"
             style="fill:none;stroke:#3b4d54;stroke-width:6;stroke-linecap:butt;stroke-linejoin:miter;stroke-miterlimit:10;stroke-dasharray:none;stroke-opacity:1"
             id="path52"
             inkscape:connector-curvature="0"
             sodipodi:nodetypes="cccsssssccc" /></g></g></g><g
       id="g54"
       transform="matrix(0.95462518,0,0,0.95462518,17.387983,7.494615)"><g
         id="g56"
         clip-path="url(#clipPath58)"><g
           id="g62"><g
             id="g64" /><g
             id="g70"><g
               clip-path="url(#clipPath66)"
               id="g72"
               style="opacity:0.14999402"><g
                 id="g74"><g
                   transform="matrix(490.5,0,0,348.75,82.389999,136.875)"
                   id="g76" /></g></g></g></g></g></g><g
       id="g80"
       transform="matrix(2.5040024,0,0,2.5040024,-375.83074,-443.57402)"><g
         id="g82"
         clip-path="url(#clipPath84)"><g
           id="g88"
           transform="translate(288.2175,206.6358)"><path
             d="M -0.12606935,0.44124274 C -86.403544,-20.418798 -119.06472,60.285462 -116.66572,63.191462 c -0.20757,1.660524 39.523066,6.528953 40.016987,4.963589 13.857,-43.088 77.8740105,-65.9715888 76.20301052,-66.3275888"
             style="fill:#d4e6e6;fill-opacity:1;fill-rule:nonzero;stroke:none"
             id="path90"
             inkscape:connector-curvature="0"
             sodipodi:nodetypes="cccc" /></g></g></g><g
       id="g92"
       transform="matrix(2.5040024,0,0,2.5040024,-375.83074,-443.57402)"><g
         id="g94"
         clip-path="url(#clipPath96)"><g
           id="g100"><g
             id="g102" /><g
             id="g108"><g
               clip-path="url(#clipPath104)"
               id="g110"
               style="opacity:0.119995"><g
                 transform="translate(266.6658,224.613)"
                 id="g112"><path
                   d="m 0,0 c -47.471,-8.369 -68.812405,-0.22743349 -95.040405,45.286567 -0.442814,-0.325834 0.732007,-5.753966 4.286151,-13.385461 C -85.961597,21.610265 -75.951004,7.84776 -60.637689,-3.3479016 -46.146489,-13.94251 -26.999799,-22.294374 0.168,-21.31 c 1.5291499,0.05538 3.0859943,0.150806 4.6656101,0.28727 18.1717409,1.569878 38.4371429,9.769246 54.4221929,24.5322561 14.775327,13.6457699 25.579756,31.7778459 29.638069,55.9435589 0.33611,2.001406 1.416048,4.161371 1.470693,6.282194 C 90.485324,70.422043 89.831685,75.427439 89.209,80.637 76.394,34.276 44.156,7.784 0,0"
                   style="fill:#000000;fill-opacity:1;fill-rule:nonzero;stroke:none"
                   id="path114"
                   inkscape:connector-curvature="0"
                   sodipodi:nodetypes="ccsscsssscc" /></g></g></g></g></g></g><g
       id="g116"
       transform="matrix(2.5040024,0,0,2.5040024,-375.83074,-443.57402)"><g
         id="g118"
         clip-path="url(#clipPath120)"><g
           id="g124"
           transform="translate(272.6795,284.3333)"><path
             d="m 9.6276055,6.0618257 c 0,-10.527 -8.533,-19.0599997 -19.06,-19.0599997 -10.5259995,0 -19.0599995,8.5329997 -19.0599995,19.0599997 0,10.5260003 8.534,19.0600003 19.0599995,19.0600003 10.527,0 19.06,-8.534 19.06,-19.0600003"
             style="fill:#ffffff;fill-opacity:1;fill-rule:nonzero;stroke:none"
             id="path126"
             inkscape:connector-curvature="0" /></g><g
           id="g128"
           transform="translate(267.4583,284.7083)"><path
             d="m 9.6276055,6.0618257 c 0,-7.434 -6.026,-13.46 -13.46,-13.46 -7.4329995,0 -13.4589995,6.026 -13.4589995,13.46 0,7.4340003 6.026,13.4600003 13.4589995,13.4600003 7.434,0 13.46,-6.026 13.46,-13.4600003"
             style="fill:#3b4d54;fill-opacity:1;fill-rule:nonzero;stroke:none"
             id="path130"
             inkscape:connector-curvature="0" /></g><g
           id="g132"
           transform="translate(265.6755,291.4748)"><path
             d="m 9.6276055,6.0618257 c 0,-2.822 -2.288,-5.10900001 -5.109,-5.10900001 -2.822,0 -5.10999999,2.28700001 -5.10999999,5.10900001 0,2.822 2.28799999,5.1090003 5.10999999,5.1090003 2.821,0 5.109,-2.2870003 5.109,-5.1090003"
             style="fill:#ffffff;fill-opacity:1;fill-rule:nonzero;stroke:none"
             id="path134"
             inkscape:connector-curvature="0" /></g></g></g><g
       id="g136"
       transform="matrix(2.5040024,0,0,2.5040024,-375.83074,-443.57402)"><g
         id="g138"
         clip-path="url(#clipPath140)"><g
           id="g144"
           transform="translate(192.9201,258.5092)" /></g></g></g><g
     inkscape:groupmode="layer"
     id="layer2"
     inkscape:label="maska"
     style="display:inline"><path
       style="color:#000000;clip-rule:nonzero;display:inline;overflow:visible;visibility:visible;opacity:1;isolation:auto;mix-blend-mode:normal;color-interpolation:sRGB;color-interpolation-filters:linearRGB;solid-color:#000000;solid-opacity:1;fill:#dbe2e3;fill-opacity:0.29670332;fill-rule:nonzero;stroke:#000000;stroke-width:7.52112055;stroke-miterlimit:4;stroke-dasharray:none;stroke-opacity:0;color-rendering:auto;image-rendering:auto;shape-rendering:auto;text-rendering:auto;enable-background:accumulate"
       d="m 537.30524,368.10237 c 0,184.47021 -54.50716,331.87988 -222.21419,331.87988 -167.70703,0 -303.660456,-149.54268 -303.660456,-334.01293 -2e-5,-184.47022 135.953426,-334.012939 303.660456,-334.012939 167.70703,0 222.21419,151.675729 222.21419,336.145989 z"
       id="path5226"
       inkscape:connector-curvature="0"
       sodipodi:nodetypes="sssss" /><path
       style="color:#000000;clip-rule:nonzero;display:inline;overflow:visible;visibility:visible;opacity:1;isolation:auto;mix-blend-mode:normal;color-interpolation:sRGB;color-interpolation-filters:linearRGB;solid-color:#000000;solid-opacity:1;fill:url(#linearGradient4215);fill-opacity:1;fill-rule:nonzero;stroke:#000000;stroke-width:7.25259113;stroke-miterlimit:4;stroke-dasharray:none;stroke-opacity:0;color-rendering:auto;image-rendering:auto;shape-rendering:auto;text-rendering:auto;enable-background:accumulate"
       d="m 414.56701,54.764995 c 33.19294,2.726674 30.24874,6.056292 61.57888,23.126063 75.58908,119.618392 146.5866,376.701312 8.93311,563.960752 -15.99756,18.32111 -23.62338,24.92335 -62.49557,31.44839 C 580.22222,456.70537 529.52136,260.17834 414.56701,54.764995 Z"
       id="rect5241"
       inkscape:connector-curvature="0"
       sodipodi:nodetypes="ccccc" /></g></svg>