<?xml version="1.0" encoding="UTF-8" standalone="no"?>
<!-- Created with Inkscape (http://www.inkscape.org/) -->

<svg
   xmlns:dc="http://purl.org/dc/elements/1.1/"
   xmlns:cc="http://creativecommons.org/ns#"
   xmlns:rdf="http://www.w3.org/1999/02/22-rdf-syntax-ns#"
   xmlns:svg="http://www.w3.org/2000/svg"
   xmlns="http://www.w3.org/2000/svg"
   xmlns:xlink="http://www.w3.org/1999/xlink"
   xmlns:sodipodi="http://sodipodi.sourceforge.net/DTD/sodipodi-0.dtd"
   xmlns:inkscape="http://www.inkscape.org/namespaces/inkscape"
   id="svg2"
   version="1.1"
   inkscape:version="0.91 r13725"
   xml:space="preserve"
   width="744.09998"
   height="745"
   viewBox="0 0 744.09998 745"
   sodipodi:docname="fish2_4.svg"><metadata
     id="metadata8"><rdf:RDF><cc:Work
         rdf:about=""><dc:format>image/svg+xml</dc:format><dc:type
           rdf:resource="http://purl.org/dc/dcmitype/StillImage" /><dc:title></dc:title></cc:Work></rdf:RDF></metadata><defs
     id="defs6"><clipPath
       clipPathUnits="userSpaceOnUse"
       id="clipPath16"><path
         d="m 0,596 595.28,0 0,-596 L 0,0 0,596 Z"
         id="path18"
         inkscape:connector-curvature="0" /></clipPath><clipPath
       clipPathUnits="userSpaceOnUse"
       id="clipPath24"><path
         d="m 124.39,410.215 346.5,0 0,-239.25 -346.5,0 0,239.25 z"
         id="path26"
         inkscape:connector-curvature="0" /></clipPath><clipPath
       clipPathUnits="userSpaceOnUse"
       id="clipPath42"><path
         d="m 0,596 595.28,0 0,-596 L 0,0 0,596 Z"
         id="path44"
         inkscape:connector-curvature="0" /></clipPath><clipPath
       clipPathUnits="userSpaceOnUse"
       id="clipPath58"><path
         d="m 0,596 595.28,0 0,-596 L 0,0 0,596 Z"
         id="path60"
         inkscape:connector-curvature="0" /></clipPath><clipPath
       clipPathUnits="userSpaceOnUse"
       id="clipPath66"><path
         d="m 82.39,485.625 490.5,0 0,-348.75 -490.5,0 0,348.75 z"
         id="path68"
         inkscape:connector-curvature="0" /></clipPath><clipPath
       clipPathUnits="userSpaceOnUse"
       id="clipPath84"><path
         d="m 0,596 595.28,0 0,-596 L 0,0 0,596 Z"
         id="path86"
         inkscape:connector-curvature="0" /></clipPath><clipPath
       clipPathUnits="userSpaceOnUse"
       id="clipPath96"><path
         d="m 0,596 595.28,0 0,-596 L 0,0 0,596 Z"
         id="path98"
         inkscape:connector-curvature="0" /></clipPath><clipPath
       clipPathUnits="userSpaceOnUse"
       id="clipPath104"><path
         d="m 170.249,305.25 186.489,0 0,-102.031 -186.489,0 0,102.031 z"
         id="path106"
         inkscape:connector-curvature="0" /></clipPath><clipPath
       clipPathUnits="userSpaceOnUse"
       id="clipPath120"><path
         d="m 0,596 595.28,0 0,-596 L 0,0 0,596 Z"
         id="path122"
         inkscape:connector-curvature="0" /></clipPath><clipPath
       clipPathUnits="userSpaceOnUse"
       id="clipPath140"><path
         d="m 0,596 595.28,0 0,-596 L 0,0 0,596 Z"
         id="path142"
         inkscape:connector-curvature="0" /></clipPath><linearGradient
       gradientTransform="matrix(0.96180833,0,0,1.057946,-6.6075037,-33.724874)"
       inkscape:collect="always"
       xlink:href="#linearGradient4209"
       id="linearGradient4215"
       x1="546.88416"
       y1="298.56393"
       x2="560.27728"
       y2="588.74738"
       gradientUnits="userSpaceOnUse" /><linearGradient
       inkscape:collect="always"
       id="linearGradient4209"><stop
         style="stop-color:#164450;stop-opacity:1;"
         offset="0"
         id="stop4211" /><stop
         style="stop-color:#164450;stop-opacity:1"
         offset="1"
         id="stop4213" /></linearGradient></defs><sodipodi:namedview
     pagecolor="#ffffff"
     bordercolor="#666666"
     borderopacity="1"
     objecttolerance="10"
     gridtolerance="10"
     guidetolerance="10"
     inkscape:pageopacity="0"
     inkscape:pageshadow="2"
     inkscape:window-width="1366"
     inkscape:window-height="719"
     id="namedview4"
     showgrid="false"
     inkscape:zoom="0.44799248"
     inkscape:cx="-75.074109"
     inkscape:cy="463.47255"
     inkscape:window-x="0"
     inkscape:window-y="0"
     inkscape:window-maximized="1"
     inkscape:current-layer="g10" /><g
     inkscape:groupmode="layer"
     id="layer3"
     inkscape:label="zeby"
     style="display:inline"><path
       style="color:#000000;clip-rule:nonzero;display:inline;overflow:visible;visibility:visible;opacity:1;isolation:auto;mix-blend-mode:normal;color-interpolation:sRGB;color-interpolation-filters:linearRGB;solid-color:#000000;solid-opacity:1;fill:#e3e2db;fill-opacity:1;fill-rule:nonzero;stroke:#000000;stroke-width:5.6937542;stroke-miterlimit:4;stroke-dasharray:none;stroke-opacity:0;color-rendering:auto;image-rendering:auto;shape-rendering:auto;text-rendering:auto;enable-background:accumulate"
       d="m 175.63189,576.64143 c 40.4343,11.74096 42.77613,23.73288 88.12302,16.74739 -8.42712,-13.63009 -38.65924,-6.4733 -60.31866,-73.1113 44.29666,20.57492 66.62333,13.76671 93.07951,6.54333 -23.47322,-22.18358 -46.07388,-45.99352 -54.8635,-95.5465 26.63712,31.77366 55.66838,42.5202 84.2624,57.10701 -26.26266,-33.91235 -56.70205,-63.00115 -75.38904,-105.66241 44.58539,30.54735 85.1884,22.38384 113.29216,17.45293 l 59.57063,112.22331 C 366.21254,644.00556 225.00977,667.64451 175.63189,576.64143 Z"
       id="rect5163"
       inkscape:connector-curvature="0"
       sodipodi:nodetypes="cccccccccc" /><path
       style="color:#000000;clip-rule:nonzero;display:inline;overflow:visible;visibility:visible;opacity:1;isolation:auto;mix-blend-mode:normal;color-interpolation:sRGB;color-interpolation-filters:linearRGB;solid-color:#000000;solid-opacity:1;fill:#e3e2db;fill-opacity:1;fill-rule:nonzero;stroke:#000000;stroke-width:5.6937542;stroke-miterlimit:4;stroke-dasharray:none;stroke-opacity:0;color-rendering:auto;image-rendering:auto;shape-rendering:auto;text-rendering:auto;enable-background:accumulate"
       d="m 173.20544,144.25857 c 40.86511,-10.14028 43.67717,-22.03073 88.71395,-13.26571 -8.95711,13.28781 -38.88408,4.94657 -63.14974,70.68036 45.07223,-18.81535 67.11361,-11.1336 93.26495,-2.87442 -24.32821,21.24241 -47.84857,44.14427 -58.58188,93.31287 27.86715,-30.70052 57.29893,-40.29601 86.44492,-53.746 -13.24041,53.76057 -58.21991,71.42625 -85.52415,93.29259 C 296.07488,355.94414 368.24144,290.36097 418.2411,218.2072 366.28999,84.448265 226.1271,55.269625 173.20544,144.25857 Z"
       id="rect5163-9"
       inkscape:connector-curvature="0"
       sodipodi:nodetypes="ccccccccc" /></g><g
     id="g10"
     inkscape:groupmode="layer"
     inkscape:label="drugi"
     transform="matrix(1.25,0,0,-1.25,0,745)"><g
       id="g12"
       transform="matrix(0.95462518,0,0,0.95462518,17.387983,7.494615)"><g
         id="g14"
         clip-path="url(#clipPath16)"><g
           id="g20"><g
             id="g22" /><g
             id="g28"><g
               clip-path="url(#clipPath24)"
               id="g30"
               style="opacity:0.38999903"><g
                 id="g32"><g
                   transform="matrix(346.5,0,0,239.25,124.39,170.96481)"
                   id="g34" /></g></g></g></g></g></g><g
       id="g38"
       inkscape:export-filename="/home/marszka/Dokumenty/EGU JAM/v.png"
       inkscape:export-xdpi="90"
       inkscape:export-ydpi="90"
       transform="matrix(2.5040024,0,0,2.5040024,-375.83074,-443.57402)"><g
         id="g40"
         clip-path="url(#clipPath42)"><g
           id="g46"
           transform="translate(366.8394,306.7531)"><path
             d="m 0,0 c 7.824,8.909 11.075,18.519 7.223,22.372 -3.316,3.315 -10.899,1.364 -18.627,-4.228 -11.676,40.762 -49.219,70.596 -93.733,70.596 -29.11768,10.219643 -14.26777,-59.396191 -0.22683,-108.108167 -19.61478,-50.936694 -27.85224,-83.195303 -13.05597,-87.672763 5.72808,-1.73336 4.55363,0.90464 13.2828,0.79493 50.117,0 91.394,37.818 96.869,86.472 10.109,-2.797 19.195,-1.261 21.036,3.882 C 14.543,-10.933 8.994,-4.283 0,0"
             style="fill:#15a2d6;fill-opacity:1;fill-rule:nonzero;stroke:none"
             id="path48"
             inkscape:connector-curvature="0"
             sodipodi:nodetypes="cccccscccc" /></g><g
           id="g50"
           transform="translate(366.8394,306.7531)"><path
             d="m 0,0 c 7.824,8.909 11.075,18.519 7.223,22.372 -3.316,3.315 -10.899,1.364 -18.627,-4.228 -11.676,40.762 -49.219,70.596 -93.733,70.596 -29.54996,6.541824 -17.99005,-76.621716 1.63567,-108.190339 -23.59748,-45.429404 -37.28501,-92.896001 -1.63567,-86.795661 50.117,0 91.394,37.818 96.869,86.472 10.109,-2.797 19.195,-1.261 21.036,3.882 C 14.543,-10.933 8.994,-4.283 0,0 Z"
             style="fill:none;stroke:#3b4d54;stroke-width:6;stroke-linecap:butt;stroke-linejoin:miter;stroke-miterlimit:10;stroke-dasharray:none;stroke-opacity:1"
             id="path52"
             inkscape:connector-curvature="0"
             sodipodi:nodetypes="ccccccccc" /></g></g></g><g
       id="g54"
       transform="matrix(0.95462518,0,0,0.95462518,17.387983,7.494615)"><g
         id="g56"
         clip-path="url(#clipPath58)"><g
           id="g62"><g
             id="g64" /><g
             id="g70"><g
               clip-path="url(#clipPath66)"
               id="g72"
               style="opacity:0.14999402"><g
                 id="g74"><g
                   transform="matrix(490.5,0,0,348.75,82.389999,136.875)"
                   id="g76" /></g></g></g></g></g></g><g
       id="g80"
       transform="matrix(2.5040024,0,0,2.5040024,-375.83074,-443.57402)"><g
         id="g82"
         clip-path="url(#clipPath84)"><g
           id="g88"
           transform="translate(288.2175,206.6358)"><path
             d="M 0.85096814,0.9770375 C -11.225713,1.0695541 -39.696008,24.388282 -45.000292,17.327703 -45.409482,13.00515 -45.544712,4.3363625 -43.269459,1.1528449 -33.777661,-11.593052 2.2202331,1.2372367 0.85096814,0.94552016"
             style="fill:#d4e6e6;fill-opacity:1;fill-rule:nonzero;stroke:none"
             id="path90"
             inkscape:connector-curvature="0"
             sodipodi:nodetypes="cccc" /></g></g></g><g
       id="g92"
       transform="matrix(2.5040024,0,0,2.5040024,-375.83074,-443.57402)"><g
         id="g94"
         clip-path="url(#clipPath96)"><g
           id="g100"><g
             id="g102" /><g
             id="g108"><g
               clip-path="url(#clipPath104)"
               id="g110"
               style="opacity:0.119995"><g
                 transform="translate(266.6658,224.613)"
                 id="g112"><path
                   d="m 0,0 c -26.362601,-3.6965614 -23.597982,-7.3546908 -23.597982,-7.3546908 0.113881,-1.2528626 -0.63686,-5.7807682 1.935445,-9.5799872 1.219184,-1.800698 3.396586,-3.259412 6.554643,-4.306431 3.423441,-1.135004 8.0363557,-1.754989 14.83017152,-0.960336 C 31.528766,-19.617106 93.33156,8.3711218 89.209,80.637 76.394,34.276 44.156,7.784 0,0"
                   style="fill:#000000;fill-opacity:1;fill-rule:nonzero;stroke:none"
                   id="path114"
                   inkscape:connector-curvature="0"
                   sodipodi:nodetypes="ccssccc" /></g></g></g></g></g></g><g
       id="g116"
       transform="matrix(2.5040024,0,0,2.5040024,-375.83074,-443.57402)"><g
         id="g118"
         clip-path="url(#clipPath120)"><g
           id="g124"
           transform="translate(272.6795,284.3333)"><path
             d="m 32.092018,19.255211 c 0,-10.527 -8.533,-19.05999967 -19.06,-19.05999967 -10.5259987,0 -19.0599987,8.53299967 -19.0599987,19.05999967 0,10.526001 8.534,19.060001 19.0599987,19.060001 10.527,0 19.06,-8.534 19.06,-19.060001"
             style="fill:#ffffff;fill-opacity:1;fill-rule:nonzero;stroke:none"
             id="path126"
             inkscape:connector-curvature="0" /></g><g
           id="g128"
           transform="translate(267.4583,284.7083)"><path
             d="m 32.092018,19.255211 c 0,-7.434 -6.026,-13.46 -13.46,-13.46 -7.432999,0 -13.4589992,6.026 -13.4589992,13.46 0,7.434001 6.0260002,13.460001 13.4589992,13.460001 7.434,0 13.46,-6.026 13.46,-13.460001"
             style="fill:#3b4d54;fill-opacity:1;fill-rule:nonzero;stroke:none"
             id="path130"
             inkscape:connector-curvature="0" /></g><g
           id="g132"
           transform="translate(265.6755,291.4748)"><path
             d="m 32.092018,19.255211 c 0,-2.822 -2.288,-5.109 -5.109,-5.109 -2.822,0 -5.11,2.287 -5.11,5.109 0,2.822001 2.288,5.109001 5.11,5.109001 2.821,0 5.109,-2.287 5.109,-5.109001"
             style="fill:#ffffff;fill-opacity:1;fill-rule:nonzero;stroke:none"
             id="path134"
             inkscape:connector-curvature="0" /></g></g></g><g
       id="g136"
       transform="matrix(2.5040024,0,0,2.5040024,-375.83074,-443.57402)"><g
         id="g138"
         clip-path="url(#clipPath140)"><g
           id="g144"
           transform="translate(192.9201,258.5092)" /></g></g></g><g
     inkscape:groupmode="layer"
     id="layer2"
     inkscape:label="maska"
     style="display:inline"><path
       style="color:#000000;clip-rule:nonzero;display:inline;overflow:visible;visibility:visible;opacity:1;isolation:auto;mix-blend-mode:normal;color-interpolation:sRGB;color-interpolation-filters:linearRGB;solid-color:#000000;solid-opacity:1;fill:#dbe2e3;fill-opacity:0.29670332;fill-rule:nonzero;stroke:#000000;stroke-width:7.52112055;stroke-miterlimit:4;stroke-dasharray:none;stroke-opacity:0;color-rendering:auto;image-rendering:auto;shape-rendering:auto;text-rendering:auto;enable-background:accumulate"
       d="m 537.30524,368.10237 c 0,184.47021 -54.50716,331.87988 -222.21419,331.87988 -167.70703,0 -303.660456,-149.54268 -303.660456,-334.01293 -2e-5,-184.47022 135.953426,-334.012939 303.660456,-334.012939 167.70703,0 222.21419,151.675729 222.21419,336.145989 z"
       id="path5226"
       inkscape:connector-curvature="0"
       sodipodi:nodetypes="sssss" /><path
       style="color:#000000;clip-rule:nonzero;display:inline;overflow:visible;visibility:visible;opacity:1;isolation:auto;mix-blend-mode:normal;color-interpolation:sRGB;color-interpolation-filters:linearRGB;solid-color:#000000;solid-opacity:1;fill:url(#linearGradient4215);fill-opacity:1;fill-rule:nonzero;stroke:#000000;stroke-width:7.25259113;stroke-miterlimit:4;stroke-dasharray:none;stroke-opacity:0;color-rendering:auto;image-rendering:auto;shape-rendering:auto;text-rendering:auto;enable-background:accumulate"
       d="m 414.56701,54.764995 c 33.19294,2.726674 30.24874,6.056292 61.57888,23.126063 75.58908,119.618392 146.5866,376.701312 8.93311,563.960752 -15.99756,18.32111 -23.62338,24.92335 -62.49557,31.44839 C 580.22222,456.70537 529.52136,260.17834 414.56701,54.764995 Z"
       id="rect5241"
       inkscape:connector-curvature="0"
       sodipodi:nodetypes="ccccc" /></g></svg>