<?xml version="1.0" encoding="UTF-8" standalone="no"?>
<!-- Created with Inkscape (http://www.inkscape.org/) -->

<svg
   xmlns:dc="http://purl.org/dc/elements/1.1/"
   xmlns:cc="http://creativecommons.org/ns#"
   xmlns:rdf="http://www.w3.org/1999/02/22-rdf-syntax-ns#"
   xmlns:svg="http://www.w3.org/2000/svg"
   xmlns="http://www.w3.org/2000/svg"
   xmlns:xlink="http://www.w3.org/1999/xlink"
   xmlns:sodipodi="http://sodipodi.sourceforge.net/DTD/sodipodi-0.dtd"
   xmlns:inkscape="http://www.inkscape.org/namespaces/inkscape"
   id="svg2"
   version="1.1"
   inkscape:version="0.91 r13725"
   xml:space="preserve"
   width="744.09998"
   height="745"
   viewBox="0 0 744.09998 745"
   sodipodi:docname="fish2_3.svg"><metadata
     id="metadata8"><rdf:RDF><cc:Work
         rdf:about=""><dc:format>image/svg+xml</dc:format><dc:type
           rdf:resource="http://purl.org/dc/dcmitype/StillImage" /><dc:title></dc:title></cc:Work></rdf:RDF></metadata><defs
     id="defs6"><clipPath
       clipPathUnits="userSpaceOnUse"
       id="clipPath16"><path
         d="m 0,596 595.28,0 0,-596 L 0,0 0,596 Z"
         id="path18"
         inkscape:connector-curvature="0" /></clipPath><clipPath
       clipPathUnits="userSpaceOnUse"
       id="clipPath24"><path
         d="m 124.39,410.215 346.5,0 0,-239.25 -346.5,0 0,239.25 z"
         id="path26"
         inkscape:connector-curvature="0" /></clipPath><clipPath
       clipPathUnits="userSpaceOnUse"
       id="clipPath42"><path
         d="m 0,596 595.28,0 0,-596 L 0,0 0,596 Z"
         id="path44"
         inkscape:connector-curvature="0" /></clipPath><clipPath
       clipPathUnits="userSpaceOnUse"
       id="clipPath58"><path
         d="m 0,596 595.28,0 0,-596 L 0,0 0,596 Z"
         id="path60"
         inkscape:connector-curvature="0" /></clipPath><clipPath
       clipPathUnits="userSpaceOnUse"
       id="clipPath66"><path
         d="m 82.39,485.625 490.5,0 0,-348.75 -490.5,0 0,348.75 z"
         id="path68"
         inkscape:connector-curvature="0" /></clipPath><clipPath
       clipPathUnits="userSpaceOnUse"
       id="clipPath84"><path
         d="m 0,596 595.28,0 0,-596 L 0,0 0,596 Z"
         id="path86"
         inkscape:connector-curvature="0" /></clipPath><clipPath
       clipPathUnits="userSpaceOnUse"
       id="clipPath96"><path
         d="m 0,596 595.28,0 0,-596 L 0,0 0,596 Z"
         id="path98"
         inkscape:connector-curvature="0" /></clipPath><clipPath
       clipPathUnits="userSpaceOnUse"
       id="clipPath104"><path
         d="m 170.249,305.25 186.489,0 0,-102.031 -186.489,0 0,102.031 z"
         id="path106"
         inkscape:connector-curvature="0" /></clipPath><clipPath
       clipPathUnits="userSpaceOnUse"
       id="clipPath120"><path
         d="m 0,596 595.28,0 0,-596 L 0,0 0,596 Z"
         id="path122"
         inkscape:connector-curvature="0" /></clipPath><clipPath
       clipPathUnits="userSpaceOnUse"
       id="clipPath140"><path
         d="m 0,596 595.28,0 0,-596 L 0,0 0,596 Z"
         id="path142"
         inkscape:connector-curvature="0" /></clipPath><linearGradient
       gradientTransform="matrix(0.96180833,0,0,1.057946,-6.6075037,-33.724874)"
       inkscape:collect="always"
       xlink:href="#linearGradient4209"
       id="linearGradient4215"
       x1="546.88416"
       y1="298.56393"
       x2="560.27728"
       y2="588.74738"
       gradientUnits="userSpaceOnUse" /><linearGradient
       inkscape:collect="always"
       id="linearGradient4209"><stop
         style="stop-color:#164450;stop-opacity:1;"
         offset="0"
         id="stop4211" /><stop
         style="stop-color:#164450;stop-opacity:1"
         offset="1"
         id="stop4213" /></linearGradient></defs><sodipodi:namedview
     pagecolor="#ffffff"
     bordercolor="#666666"
     borderopacity="1"
     objecttolerance="10"
     gridtolerance="10"
     guidetolerance="10"
     inkscape:pageopacity="0"
     inkscape:pageshadow="2"
     inkscape:window-width="1366"
     inkscape:window-height="719"
     id="namedview4"
     showgrid="false"
     inkscape:zoom="0.31677852"
     inkscape:cx="820.83248"
     inkscape:cy="526.81067"
     inkscape:window-x="0"
     inkscape:window-y="0"
     inkscape:window-maximized="1"
     inkscape:current-layer="g10" /><g
     inkscape:groupmode="layer"
     id="layer3"
     inkscape:label="zeby"
     style="display:inline"><path
       style="color:#000000;clip-rule:nonzero;display:inline;overflow:visible;visibility:visible;opacity:1;isolation:auto;mix-blend-mode:normal;color-interpolation:sRGB;color-interpolation-filters:linearRGB;solid-color:#000000;solid-opacity:1;fill:#e3e2db;fill-opacity:1;fill-rule:nonzero;stroke:#000000;stroke-width:5.6937542;stroke-miterlimit:4;stroke-dasharray:none;stroke-opacity:0;color-rendering:auto;image-rendering:auto;shape-rendering:auto;text-rendering:auto;enable-background:accumulate"
       d="m 126.05707,523.56956 c 32.29975,27.00942 29.62166,38.93075 73.94965,50.76998 -2.23478,-15.86826 -32.79278,-21.47264 -25.82715,-91.19519 32.28373,36.65082 55.46345,39.39539 82.59103,43.42041 -12.57121,-29.75009 -23.68951,-60.63838 -11.81076,-109.54288 11.61163,39.80291 33.8708,61.31643 54.18538,86.17022 -10.40877,-41.61049 -26.58135,-80.48415 -26.53581,-127.05866 28.53794,45.89753 68.99621,54.75055 96.71044,61.53705 l 9.41441,126.70478 C 273.46128,661.88408 134.67229,626.74666 126.05707,523.56956 Z"
       id="rect5163"
       inkscape:connector-curvature="0"
       sodipodi:nodetypes="cccccccccc" /><path
       style="color:#000000;clip-rule:nonzero;display:inline;overflow:visible;visibility:visible;opacity:1;isolation:auto;mix-blend-mode:normal;color-interpolation:sRGB;color-interpolation-filters:linearRGB;solid-color:#000000;solid-opacity:1;fill:#e3e2db;fill-opacity:1;fill-rule:nonzero;stroke:#000000;stroke-width:5.6937542;stroke-miterlimit:4;stroke-dasharray:none;stroke-opacity:0;color-rendering:auto;image-rendering:auto;shape-rendering:auto;text-rendering:auto;enable-background:accumulate"
       d="m 130.19804,234.25128 c 35.01565,-23.38133 33.63442,-35.52145 78.97811,-42.52765 -3.92739,15.53613 -34.91072,17.82362 -35.47935,87.89094 36.03603,-32.96858 59.37646,-33.20587 86.77951,-34.29183 -15.69597,28.22655 -30.06981,57.74088 -23.5162,107.63883 15.82246,-38.32427 40.265,-57.32073 63.13319,-79.84709 5.7499,55.06765 -30.58826,86.9231 -48.87307,116.74464 66.28009,1.95336 111.96971,-84.19548 134.57713,-169.01905 -94.18275,-108.25885 -235.94439,-88.24221 -255.59932,13.41121 z"
       id="rect5163-9"
       inkscape:connector-curvature="0"
       sodipodi:nodetypes="ccccccccc" /></g><g
     id="g10"
     inkscape:groupmode="layer"
     inkscape:label="drugi"
     transform="matrix(1.25,0,0,-1.25,0,745)"><g
       id="g12"
       transform="matrix(0.95462518,0,0,0.95462518,17.387983,7.494615)"><g
         id="g14"
         clip-path="url(#clipPath16)"><g
           id="g20"><g
             id="g22" /><g
             id="g28"><g
               clip-path="url(#clipPath24)"
               id="g30"
               style="opacity:0.38999903"><g
                 id="g32"><g
                   transform="matrix(346.5,0,0,239.25,124.39,170.96481)"
                   id="g34" /></g></g></g></g></g></g><g
       id="g38"
       inkscape:export-filename="/home/marszka/Dokumenty/EGU JAM/v.png"
       inkscape:export-xdpi="90"
       inkscape:export-ydpi="90"
       transform="matrix(2.5040024,0,0,2.5040024,-375.83074,-443.57402)"><g
         id="g40"
         clip-path="url(#clipPath42)"><g
           id="g46"
           transform="translate(366.8394,306.7531)"><path
             d="m 0,0 c 7.824,8.909 11.075,18.519 7.223,22.372 -3.316,3.315 -10.899,1.364 -18.627,-4.228 -11.676,40.762 -49.219,70.596 -93.733,70.596 -80.70244,-0.258512 -16.75311,-59.901025 -0.22683,-108.108167 -41.82495,-52.790844 -71.85916,-85.971833 0.22683,-86.877833 50.117,0 91.394,37.818 96.869,86.472 10.109,-2.797 19.195,-1.261 21.036,3.882 C 14.543,-10.933 8.994,-4.283 0,0"
             style="fill:#15a2d6;fill-opacity:1;fill-rule:nonzero;stroke:none"
             id="path48"
             inkscape:connector-curvature="0"
             sodipodi:nodetypes="ccccccccc" /></g><g
           id="g50"
           transform="translate(366.8394,306.7531)"><path
             d="m 0,0 c 7.824,8.909 11.075,18.519 7.223,22.372 -3.316,3.315 -10.899,1.364 -18.627,-4.228 -11.676,40.762 -49.219,70.596 -93.733,70.596 -12.62938,0 -24.69786,-2.401394 -35.77376,-6.772482 -16.48655,-5.007399 13.88929,-64.001391 37.40943,-101.417857 -36.76871,-47.272766 -59.57675,-70.721922 -46.23576,-76.018922 13.36532,-6.887949 28.52855,-10.776739 44.60009,-10.776739 50.117,0 91.394,37.818 96.869,86.472 10.109,-2.797 19.195,-1.261 21.036,3.882 C 14.543,-10.933 8.994,-4.283 0,0 Z"
             style="fill:none;stroke:#3b4d54;stroke-width:6;stroke-linecap:butt;stroke-linejoin:miter;stroke-miterlimit:10;stroke-dasharray:none;stroke-opacity:1"
             id="path52"
             inkscape:connector-curvature="0"
             sodipodi:nodetypes="cccscccsccc" /></g></g></g><g
       id="g54"
       transform="matrix(0.95462518,0,0,0.95462518,17.387983,7.494615)"><g
         id="g56"
         clip-path="url(#clipPath58)"><g
           id="g62"><g
             id="g64" /><g
             id="g70"><g
               clip-path="url(#clipPath66)"
               id="g72"
               style="opacity:0.14999402"><g
                 id="g74"><g
                   transform="matrix(490.5,0,0,348.75,82.389999,136.875)"
                   id="g76" /></g></g></g></g></g></g><g
       id="g80"
       transform="matrix(2.5040024,0,0,2.5040024,-375.83074,-443.57402)"><g
         id="g82"
         clip-path="url(#clipPath84)"><g
           id="g88"
           transform="translate(288.2175,206.6358)"><path
             d="M 0,0 C -41.305057,-10.46816 -71.507835,7.5403503 -72.315157,9.6660232 -73.157657,13.787016 -59.711283,33.148949 -59.17347,31.547928 -45.31647,-11.540072 1.671,0.356 0,0"
             style="fill:#d4e6e6;fill-opacity:1;fill-rule:nonzero;stroke:none"
             id="path90"
             inkscape:connector-curvature="0"
             sodipodi:nodetypes="cccc" /></g></g></g><g
       id="g92"
       transform="matrix(2.5040024,0,0,2.5040024,-375.83074,-443.57402)"><g
         id="g94"
         clip-path="url(#clipPath96)"><g
           id="g100"><g
             id="g102" /><g
             id="g108"><g
               clip-path="url(#clipPath104)"
               id="g110"
               style="opacity:0.119995"><g
                 transform="translate(266.6658,224.613)"
                 id="g112"><path
                   d="M 0,0 C -47.471,-8.369 -30.588011,-5.5278199 -50.815364,-8.394763 -51.974642,-8.1940229 -38.087016,-20.896798 0.168,-21.31 39.736,-19.877 97.847,8.369 89.209,80.637 76.394,34.276 44.156,7.784 0,0"
                   style="fill:#000000;fill-opacity:1;fill-rule:nonzero;stroke:none"
                   id="path114"
                   inkscape:connector-curvature="0"
                   sodipodi:nodetypes="ccccc" /></g></g></g></g></g></g><g
       id="g116"
       transform="matrix(2.5040024,0,0,2.5040024,-375.83074,-443.57402)"><g
         id="g118"
         clip-path="url(#clipPath120)"><g
           id="g124"
           transform="translate(272.6795,284.3333)"><path
             d="m 32.092018,19.255211 c 0,-10.527 -8.533,-19.05999967 -19.06,-19.05999967 -10.5259987,0 -19.0599987,8.53299967 -19.0599987,19.05999967 0,10.526001 8.534,19.060001 19.0599987,19.060001 10.527,0 19.06,-8.534 19.06,-19.060001"
             style="fill:#ffffff;fill-opacity:1;fill-rule:nonzero;stroke:none"
             id="path126"
             inkscape:connector-curvature="0" /></g><g
           id="g128"
           transform="translate(267.4583,284.7083)"><path
             d="m 32.092018,19.255211 c 0,-7.434 -6.026,-13.46 -13.46,-13.46 -7.432999,0 -13.4589992,6.026 -13.4589992,13.46 0,7.434001 6.0260002,13.460001 13.4589992,13.460001 7.434,0 13.46,-6.026 13.46,-13.460001"
             style="fill:#3b4d54;fill-opacity:1;fill-rule:nonzero;stroke:none"
             id="path130"
             inkscape:connector-curvature="0" /></g><g
           id="g132"
           transform="translate(265.6755,291.4748)"><path
             d="m 32.092018,19.255211 c 0,-2.822 -2.288,-5.109 -5.109,-5.109 -2.822,0 -5.11,2.287 -5.11,5.109 0,2.822001 2.288,5.109001 5.11,5.109001 2.821,0 5.109,-2.287 5.109,-5.109001"
             style="fill:#ffffff;fill-opacity:1;fill-rule:nonzero;stroke:none"
             id="path134"
             inkscape:connector-curvature="0" /></g></g></g><g
       id="g136"
       transform="matrix(2.5040024,0,0,2.5040024,-375.83074,-443.57402)"><g
         id="g138"
         clip-path="url(#clipPath140)"><g
           id="g144"
           transform="translate(192.9201,258.5092)" /></g></g></g><g
     inkscape:groupmode="layer"
     id="layer2"
     inkscape:label="maska"
     style="display:inline"><path
       style="color:#000000;clip-rule:nonzero;display:inline;overflow:visible;visibility:visible;opacity:1;isolation:auto;mix-blend-mode:normal;color-interpolation:sRGB;color-interpolation-filters:linearRGB;solid-color:#000000;solid-opacity:1;fill:#dbe2e3;fill-opacity:0.29670332;fill-rule:nonzero;stroke:#000000;stroke-width:7.52112055;stroke-miterlimit:4;stroke-dasharray:none;stroke-opacity:0;color-rendering:auto;image-rendering:auto;shape-rendering:auto;text-rendering:auto;enable-background:accumulate"
       d="m 537.30524,368.10237 c 0,184.47021 -54.50716,331.87988 -222.21419,331.87988 -167.70703,0 -303.660456,-149.54268 -303.660456,-334.01293 -2e-5,-184.47022 135.953426,-334.012939 303.660456,-334.012939 167.70703,0 222.21419,151.675729 222.21419,336.145989 z"
       id="path5226"
       inkscape:connector-curvature="0"
       sodipodi:nodetypes="sssss" /><path
       style="color:#000000;clip-rule:nonzero;display:inline;overflow:visible;visibility:visible;opacity:1;isolation:auto;mix-blend-mode:normal;color-interpolation:sRGB;color-interpolation-filters:linearRGB;solid-color:#000000;solid-opacity:1;fill:url(#linearGradient4215);fill-opacity:1;fill-rule:nonzero;stroke:#000000;stroke-width:7.25259113;stroke-miterlimit:4;stroke-dasharray:none;stroke-opacity:0;color-rendering:auto;image-rendering:auto;shape-rendering:auto;text-rendering:auto;enable-background:accumulate"
       d="m 414.56701,54.764995 c 33.19294,2.726674 30.24874,6.056292 61.57888,23.126063 75.58908,119.618392 146.5866,376.701312 8.93311,563.960752 -15.99756,18.32111 -23.62338,24.92335 -62.49557,31.44839 C 580.22222,456.70537 529.52136,260.17834 414.56701,54.764995 Z"
       id="rect5241"
       inkscape:connector-curvature="0"
       sodipodi:nodetypes="ccccc" /></g></svg>