<?xml version="1.0" encoding="UTF-8" standalone="no"?>
<!-- Created with Inkscape (http://www.inkscape.org/) -->

<svg
   xmlns:dc="http://purl.org/dc/elements/1.1/"
   xmlns:cc="http://creativecommons.org/ns#"
   xmlns:rdf="http://www.w3.org/1999/02/22-rdf-syntax-ns#"
   xmlns:svg="http://www.w3.org/2000/svg"
   xmlns="http://www.w3.org/2000/svg"
   xmlns:sodipodi="http://sodipodi.sourceforge.net/DTD/sodipodi-0.dtd"
   xmlns:inkscape="http://www.inkscape.org/namespaces/inkscape"
   id="svg2"
   version="1.1"
   inkscape:version="0.91 r13725"
   xml:space="preserve"
   width="744.09998"
   height="745"
   viewBox="0 0 744.09998 745"
   sodipodi:docname="fish3_1.svg"><metadata
     id="metadata8"><rdf:RDF><cc:Work
         rdf:about=""><dc:format>image/svg+xml</dc:format><dc:type
           rdf:resource="http://purl.org/dc/dcmitype/StillImage" /><dc:title></dc:title></cc:Work></rdf:RDF></metadata><defs
     id="defs6"><clipPath
       clipPathUnits="userSpaceOnUse"
       id="clipPath16"><path
         d="m 0,596 595.28,0 0,-596 L 0,0 0,596 Z"
         id="path18"
         inkscape:connector-curvature="0" /></clipPath><clipPath
       clipPathUnits="userSpaceOnUse"
       id="clipPath24"><path
         d="m 124.39,410.215 346.5,0 0,-239.25 -346.5,0 0,239.25 z"
         id="path26"
         inkscape:connector-curvature="0" /></clipPath><clipPath
       clipPathUnits="userSpaceOnUse"
       id="clipPath42"><path
         d="m 0,596 595.28,0 0,-596 L 0,0 0,596 Z"
         id="path44"
         inkscape:connector-curvature="0" /></clipPath><clipPath
       clipPathUnits="userSpaceOnUse"
       id="clipPath58"><path
         d="m 0,596 595.28,0 0,-596 L 0,0 0,596 Z"
         id="path60"
         inkscape:connector-curvature="0" /></clipPath><clipPath
       clipPathUnits="userSpaceOnUse"
       id="clipPath66"><path
         d="m 82.39,485.625 490.5,0 0,-348.75 -490.5,0 0,348.75 z"
         id="path68"
         inkscape:connector-curvature="0" /></clipPath><clipPath
       clipPathUnits="userSpaceOnUse"
       id="clipPath84"><path
         d="m 0,596 595.28,0 0,-596 L 0,0 0,596 Z"
         id="path86"
         inkscape:connector-curvature="0" /></clipPath><clipPath
       clipPathUnits="userSpaceOnUse"
       id="clipPath96"><path
         d="m 0,596 595.28,0 0,-596 L 0,0 0,596 Z"
         id="path98"
         inkscape:connector-curvature="0" /></clipPath><clipPath
       clipPathUnits="userSpaceOnUse"
       id="clipPath104"><path
         d="m 170.249,305.25 186.489,0 0,-102.031 -186.489,0 0,102.031 z"
         id="path106"
         inkscape:connector-curvature="0" /></clipPath><clipPath
       clipPathUnits="userSpaceOnUse"
       id="clipPath120"><path
         d="m 0,596 595.28,0 0,-596 L 0,0 0,596 Z"
         id="path122"
         inkscape:connector-curvature="0" /></clipPath><clipPath
       clipPathUnits="userSpaceOnUse"
       id="clipPath140"><path
         d="m 0,596 595.28,0 0,-596 L 0,0 0,596 Z"
         id="path142"
         inkscape:connector-curvature="0" /></clipPath></defs><sodipodi:namedview
     pagecolor="#ffffff"
     bordercolor="#666666"
     borderopacity="1"
     objecttolerance="10"
     gridtolerance="10"
     guidetolerance="10"
     inkscape:pageopacity="0"
     inkscape:pageshadow="2"
     inkscape:window-width="1366"
     inkscape:window-height="719"
     id="namedview4"
     showgrid="false"
     inkscape:zoom="0.63355704"
     inkscape:cx="245.30784"
     inkscape:cy="339.3944"
     inkscape:window-x="0"
     inkscape:window-y="0"
     inkscape:window-maximized="1"
     inkscape:current-layer="g10" /><g
     inkscape:groupmode="layer"
     id="layer1"
     inkscape:label="zeby"><path
       style="color:#000000;clip-rule:nonzero;display:inline;overflow:visible;visibility:visible;opacity:1;isolation:auto;mix-blend-mode:normal;color-interpolation:sRGB;color-interpolation-filters:linearRGB;solid-color:#000000;solid-opacity:1;fill:#e3e2db;fill-opacity:1;fill-rule:nonzero;stroke:#000000;stroke-width:5.6937542;stroke-miterlimit:4;stroke-dasharray:none;stroke-opacity:0;color-rendering:auto;image-rendering:auto;shape-rendering:auto;text-rendering:auto;enable-background:accumulate"
       d="m 73.278716,385.2864 c 2.925534,42.00266 -7.52281,48.33687 14.674453,88.49181 9.88714,-12.61112 -7.257729,-38.51968 47.820701,-81.83388 -4.0342,48.67491 10.05685,67.28336 25.96189,89.62472 12.72627,-29.68408 27.28006,-59.1101 70.76073,-84.45149 -20.63663,35.96152 -20.71067,66.91788 -24.54014,98.78837 22.77324,-36.34769 39.57834,-74.95212 73.17652,-107.20656 -13.2951,52.38547 8.3717,87.68132 22.6932,112.35985 l -84.79069,94.62172 C 75.78068,587.40677 4.8905755,463.02183 73.278716,385.2864 Z"
       id="rect5163"
       inkscape:connector-curvature="0"
       sodipodi:nodetypes="cccccccccc" /><path
       style="color:#000000;clip-rule:nonzero;display:inline;overflow:visible;visibility:visible;opacity:1;isolation:auto;mix-blend-mode:normal;color-interpolation:sRGB;color-interpolation-filters:linearRGB;solid-color:#000000;solid-opacity:1;fill:#e3e2db;fill-opacity:1;fill-rule:nonzero;stroke:#000000;stroke-width:5.6937542;stroke-miterlimit:4;stroke-dasharray:none;stroke-opacity:0;color-rendering:auto;image-rendering:auto;shape-rendering:auto;text-rendering:auto;enable-background:accumulate"
       d="m 34.161422,352.0451 c 28.85056,-30.66639 24.7708,-42.18359 67.371848,-59.22142 -0.32769,16.0215 -29.999948,25.22781 -14.774476,93.62327 27.685626,-40.23715 50.373046,-45.72472 76.827596,-52.95408 -8.93601,31.03626 -16.29385,63.02947 1.32866,110.16971 6.7852,-40.90307 26.32176,-64.91612 43.52946,-92.01383 18.00368,52.35814 -10.22701,91.57879 -21.32616,124.75209 65.01736,-13.02341 90.13216,-107.24873 93.05616,-194.9846 C 164.03078,197.14879 30.418622,248.57662 34.161422,352.0451 Z"
       id="rect5163-9"
       inkscape:connector-curvature="0"
       sodipodi:nodetypes="ccccccccc" /></g><g
     id="g10"
     inkscape:groupmode="layer"
     inkscape:label="drugi"
     transform="matrix(1.25,0,0,-1.25,0,745)"><g
       id="g12"><g
         id="g14"
         clip-path="url(#clipPath16)"><g
           id="g20"><g
             id="g22" /><g
             id="g28"><g
               clip-path="url(#clipPath24)"
               id="g30"
               style="opacity:0.38999903"><g
                 id="g32"><g
                   transform="matrix(346.5,0,0,239.25,124.39,170.96481)"
                   id="g34" /></g></g></g></g></g></g><g
       id="g38"
       inkscape:export-filename="/home/marszka/Dokumenty/EGU JAM/v.png"
       inkscape:export-xdpi="90"
       inkscape:export-ydpi="90"
       transform="matrix(2.6230215,0,0,2.6230215,-411.90903,-472.50863)"><g
         id="g40"
         clip-path="url(#clipPath42)"><g
           id="g46"
           transform="translate(366.8394,306.7531)"><path
             d="m 0,0 c 7.824,8.909 11.075,18.519 7.223,22.372 -3.316,3.315 -10.899,1.364 -18.627,-4.228 -11.676,40.762 -49.219,70.596 -93.733,70.596 -42.42418,0 -78.5193,-27.097336 -91.92184,-64.928497 -3.60772,-10.183461 58.93589,-34.62377 58.93589,-46.043589 0,-13.223545 -61.87439,-12.353098 -57.1046,-23.851291 14.65197,-35.32047 49.47009,-60.162623 90.09055,-60.162623 50.117,0 91.394,37.818 96.869,86.472 10.109,-2.797 19.195,-1.261 21.036,3.882 C 14.543,-10.933 8.994,-4.283 0,0"
             style="fill:#c83737;fill-opacity:1;fill-rule:nonzero;stroke:none"
             id="path48"
             inkscape:connector-curvature="0"
             sodipodi:nodetypes="cccsssssccc" /></g><g
           id="g50"
           transform="translate(366.8394,306.7531)"><path
             d="m 0,0 c 7.824,8.909 11.075,18.519 7.223,22.372 -3.316,3.315 -10.899,1.364 -18.627,-4.228 -11.676,40.762 -49.219,70.596 -93.733,70.596 -42.41406,0 -78.50207,-27.084405 -91.91224,-64.901415 -3.61383,-10.191109 59.88909,-33.677936 59.88909,-45.107879 0,-14.619814 -62.25187,-15.971717 -56.48558,-28.418627 15.47065,-33.394399 49.28454,-56.558079 88.50873,-56.558079 50.117,0 91.394,37.818 96.869,86.472 10.109,-2.797 19.195,-1.261 21.036,3.882 C 14.543,-10.933 8.994,-4.283 0,0 Z"
             style="fill:none;stroke:#a02c2c;stroke-width:6;stroke-linecap:butt;stroke-linejoin:miter;stroke-miterlimit:10;stroke-dasharray:none;stroke-opacity:1"
             id="path52"
             inkscape:connector-curvature="0"
             sodipodi:nodetypes="cccsssssccc" /></g></g></g><g
       id="g54"><g
         id="g56"
         clip-path="url(#clipPath58)"><g
           id="g62"><g
             id="g64" /><g
             id="g70"><g
               clip-path="url(#clipPath66)"
               id="g72"
               style="opacity:0.14999402"><g
                 id="g74"><g
                   transform="matrix(490.5,0,0,348.75,82.389999,136.875)"
                   id="g76" /></g></g></g></g></g></g><g
       id="g80"
       transform="matrix(2.6230215,0,0,2.6230215,-411.90903,-472.50863)"><g
         id="g82"
         clip-path="url(#clipPath84)"><g
           id="g88"
           transform="translate(288.2175,206.6358)"><path
             d="m 0,0 c -89.051,-18.969 -110.87537,51.840577 -112.32754,51.978551 -0.46128,3.266639 34.015317,13.550248 34.605534,11.75967 C -63.865006,20.650221 1.671,0.356 0,0"
             style="fill:#d4e6e6;fill-opacity:1;fill-rule:nonzero;stroke:none"
             id="path90"
             inkscape:connector-curvature="0"
             sodipodi:nodetypes="cccc" /></g></g></g><g
       id="g92"
       transform="matrix(2.6230215,0,0,2.6230215,-411.90903,-472.50863)"><g
         id="g94"
         clip-path="url(#clipPath96)"><g
           id="g100"><g
             id="g102" /><g
             id="g108"><g
               clip-path="url(#clipPath104)"
               id="g110"
               style="opacity:0.119995"><g
                 transform="translate(266.6658,224.613)"
                 id="g112"><path
                   d="M 0,0 C -46.871092,-7.6491102 -60.820347,-6.7744839 -90.796947,34.241196 -89.925175,32.964936 -71.399375,-24.32137 0.168,-21.31 39.511776,-19.586369 93.098046,13.935814 89.209,80.637 76.394,34.276 44.156,7.784 0,0"
                   style="fill:#000000;fill-opacity:1;fill-rule:nonzero;stroke:none"
                   id="path114"
                   inkscape:connector-curvature="0"
                   sodipodi:nodetypes="ccccc" /></g></g></g></g></g></g><g
       id="g116"
       transform="matrix(2.6230215,0,0,2.6230215,-411.90903,-472.50863)"><g
         id="g118"
         clip-path="url(#clipPath120)"><g
           id="g124"
           transform="translate(272.6795,284.3333)"><path
             d="m 10.59071,7.7023349 c 0,-10.527 -8.5329995,-19.0599999 -19.0599995,-19.0599999 -10.5260005,0 -19.0600005,8.5329999 -19.0600005,19.0599999 0,10.5260001 8.534,19.0600001 19.0600005,19.0600001 10.527,0 19.0599995,-8.534 19.0599995,-19.0600001"
             style="fill:#ffffff;fill-opacity:1;fill-rule:nonzero;stroke:none"
             id="path126"
             inkscape:connector-curvature="0" /></g><g
           id="g128"
           transform="translate(267.4583,284.7083)"><path
             d="m 10.59071,7.7023349 c 0,-7.434 -6.0259995,-13.46 -13.4599995,-13.46 -7.4330005,0 -13.4590005,6.026 -13.4590005,13.46 0,7.4340001 6.026,13.4600001 13.4590005,13.4600001 7.434,0 13.4599995,-6.026 13.4599995,-13.4600001"
             style="fill:#ff0000;fill-opacity:1;fill-rule:nonzero;stroke:none"
             id="path130"
             inkscape:connector-curvature="0" /></g><g
           id="g132"
           transform="translate(265.6755,291.4748)"><path
             d="m 4.3325635,1.9255838 c 0,-2.822 -2.288,-5.1089999 -5.10900002,-5.1089999 -2.82199998,0 -5.10999998,2.2869999 -5.10999998,5.1089999 0,2.822 2.288,5.109 5.10999998,5.109 2.82100002,0 5.10900002,-2.287 5.10900002,-5.109"
             style="fill:#ffffff;fill-opacity:1;fill-rule:nonzero;stroke:none"
             id="path134"
             inkscape:connector-curvature="0" /></g></g></g><g
       id="g136"
       transform="matrix(2.6230215,0,0,2.6230215,-411.90903,-472.50863)"><g
         id="g138"
         clip-path="url(#clipPath140)"><g
           id="g144"
           transform="translate(192.9201,258.5092)" /></g></g><path
       transform="scale(1,-1)"
       style="color:#000000;clip-rule:nonzero;display:inline;overflow:visible;visibility:visible;opacity:1;isolation:auto;mix-blend-mode:normal;color-interpolation:sRGB;color-interpolation-filters:linearRGB;solid-color:#000000;solid-opacity:1;fill:#782121;fill-opacity:1;fill-rule:nonzero;stroke:#21474e;stroke-width:6.84719992;stroke-miterlimit:4;stroke-dasharray:none;stroke-opacity:0;color-rendering:auto;image-rendering:auto;shape-rendering:auto;text-rendering:auto;enable-background:accumulate"
       d="m 366.8178,-309.36438 34.86541,8.55102 -7.77671,-78.5097 98.8382,25.87222 -88.87409,-10.0338 21.03193,82.53128 -49.87712,-8.83899 -41.66948,38.51271 z"
       id="rect4218"
       inkscape:connector-curvature="0"
       sodipodi:nodetypes="ccccccccc" /></g></svg>