<?xml version="1.0" encoding="UTF-8" standalone="no"?>
<!-- Created with Inkscape (http://www.inkscape.org/) -->

<svg
   xmlns:dc="http://purl.org/dc/elements/1.1/"
   xmlns:cc="http://creativecommons.org/ns#"
   xmlns:rdf="http://www.w3.org/1999/02/22-rdf-syntax-ns#"
   xmlns:svg="http://www.w3.org/2000/svg"
   xmlns="http://www.w3.org/2000/svg"
   xmlns:sodipodi="http://sodipodi.sourceforge.net/DTD/sodipodi-0.dtd"
   xmlns:inkscape="http://www.inkscape.org/namespaces/inkscape"
   id="svg2"
   version="1.1"
   inkscape:version="0.91 r13725"
   xml:space="preserve"
   width="744.09998"
   height="745"
   viewBox="0 0 744.09998 745"
   sodipodi:docname="fish3.svg"><metadata
     id="metadata8"><rdf:RDF><cc:Work
         rdf:about=""><dc:format>image/svg+xml</dc:format><dc:type
           rdf:resource="http://purl.org/dc/dcmitype/StillImage" /><dc:title></dc:title></cc:Work></rdf:RDF></metadata><defs
     id="defs6"><clipPath
       clipPathUnits="userSpaceOnUse"
       id="clipPath16"><path
         d="m 0,596 595.28,0 0,-596 L 0,0 0,596 Z"
         id="path18"
         inkscape:connector-curvature="0" /></clipPath><clipPath
       clipPathUnits="userSpaceOnUse"
       id="clipPath24"><path
         d="m 124.39,410.215 346.5,0 0,-239.25 -346.5,0 0,239.25 z"
         id="path26"
         inkscape:connector-curvature="0" /></clipPath><clipPath
       clipPathUnits="userSpaceOnUse"
       id="clipPath42"><path
         d="m 0,596 595.28,0 0,-596 L 0,0 0,596 Z"
         id="path44"
         inkscape:connector-curvature="0" /></clipPath><clipPath
       clipPathUnits="userSpaceOnUse"
       id="clipPath58"><path
         d="m 0,596 595.28,0 0,-596 L 0,0 0,596 Z"
         id="path60"
         inkscape:connector-curvature="0" /></clipPath><clipPath
       clipPathUnits="userSpaceOnUse"
       id="clipPath66"><path
         d="m 82.39,485.625 490.5,0 0,-348.75 -490.5,0 0,348.75 z"
         id="path68"
         inkscape:connector-curvature="0" /></clipPath><clipPath
       clipPathUnits="userSpaceOnUse"
       id="clipPath84"><path
         d="m 0,596 595.28,0 0,-596 L 0,0 0,596 Z"
         id="path86"
         inkscape:connector-curvature="0" /></clipPath><clipPath
       clipPathUnits="userSpaceOnUse"
       id="clipPath96"><path
         d="m 0,596 595.28,0 0,-596 L 0,0 0,596 Z"
         id="path98"
         inkscape:connector-curvature="0" /></clipPath><clipPath
       clipPathUnits="userSpaceOnUse"
       id="clipPath104"><path
         d="m 170.249,305.25 186.489,0 0,-102.031 -186.489,0 0,102.031 z"
         id="path106"
         inkscape:connector-curvature="0" /></clipPath><clipPath
       clipPathUnits="userSpaceOnUse"
       id="clipPath120"><path
         d="m 0,596 595.28,0 0,-596 L 0,0 0,596 Z"
         id="path122"
         inkscape:connector-curvature="0" /></clipPath><clipPath
       clipPathUnits="userSpaceOnUse"
       id="clipPath140"><path
         d="m 0,596 595.28,0 0,-596 L 0,0 0,596 Z"
         id="path142"
         inkscape:connector-curvature="0" /></clipPath></defs><sodipodi:namedview
     pagecolor="#ffffff"
     bordercolor="#666666"
     borderopacity="1"
     objecttolerance="10"
     gridtolerance="10"
     guidetolerance="10"
     inkscape:pageopacity="0"
     inkscape:pageshadow="2"
     inkscape:window-width="1366"
     inkscape:window-height="719"
     id="namedview4"
     showgrid="false"
     inkscape:zoom="0.22399624"
     inkscape:cx="-673.42445"
     inkscape:cy="220.74912"
     inkscape:window-x="0"
     inkscape:window-y="0"
     inkscape:window-maximized="1"
     inkscape:current-layer="g10" /><g
     id="g10"
     inkscape:groupmode="layer"
     inkscape:label="drugi"
     transform="matrix(1.25,0,0,-1.25,0,745)"><g
       id="g12"><g
         id="g14"
         clip-path="url(#clipPath16)"><g
           id="g20"><g
             id="g22" /><g
             id="g28"><g
               clip-path="url(#clipPath24)"
               id="g30"
               style="opacity:0.38999903"><g
                 id="g32"><g
                   transform="matrix(346.5,0,0,239.25,124.39,170.96481)"
                   id="g34" /></g></g></g></g></g></g><g
       id="g38"
       inkscape:export-filename="/home/marszka/Dokumenty/EGU JAM/v.png"
       inkscape:export-xdpi="90"
       inkscape:export-ydpi="90"
       transform="matrix(2.6230215,0,0,2.6230215,-411.90903,-472.50863)"><g
         id="g40"
         clip-path="url(#clipPath42)"><g
           id="g46"
           transform="translate(366.8394,306.7531)"><path
             d="m 0,0 c 7.824,8.909 11.075,18.519 7.223,22.372 -3.316,3.315 -10.899,1.364 -18.627,-4.228 -11.676,40.762 -49.219,70.596 -93.733,70.596 -53.844,0 -97.493,-43.649 -97.493,-97.493 0,-53.844 43.649,-97.493 97.493,-97.493 50.117,0 91.394,37.818 96.869,86.472 10.109,-2.797 19.195,-1.261 21.036,3.882 C 14.543,-10.933 8.994,-4.283 0,0"
             style="fill:#c83737;fill-opacity:1;fill-rule:nonzero;stroke:none"
             id="path48"
             inkscape:connector-curvature="0" /></g><g
           id="g50"
           transform="translate(366.8394,306.7531)"><path
             d="m 0,0 c 7.824,8.909 11.075,18.519 7.223,22.372 -3.316,3.315 -10.899,1.364 -18.627,-4.228 -11.676,40.762 -49.219,70.596 -93.733,70.596 -53.844,0 -97.493,-43.649 -97.493,-97.493 0,-53.844 43.649,-97.493 97.493,-97.493 50.117,0 91.394,37.818 96.869,86.472 10.109,-2.797 19.195,-1.261 21.036,3.882 C 14.543,-10.933 8.994,-4.283 0,0 Z"
             style="fill:none;stroke:#a02c2c;stroke-width:6;stroke-linecap:butt;stroke-linejoin:miter;stroke-miterlimit:10;stroke-dasharray:none;stroke-opacity:1"
             id="path52"
             inkscape:connector-curvature="0" /></g></g></g><g
       id="g54"><g
         id="g56"
         clip-path="url(#clipPath58)"><g
           id="g62"><g
             id="g64" /><g
             id="g70"><g
               clip-path="url(#clipPath66)"
               id="g72"
               style="opacity:0.14999402"><g
                 id="g74"><g
                   transform="matrix(490.5,0,0,348.75,82.389999,136.875)"
                   id="g76" /></g></g></g></g></g></g><g
       id="g80"
       transform="matrix(2.6230215,0,0,2.6230215,-411.90903,-472.50863)"><g
         id="g82"
         clip-path="url(#clipPath84)"><g
           id="g88"
           transform="translate(288.2175,206.6358)"><path
             d="m 0,0 c -89.051,-18.969 -118.619,58.458 -116.22,61.364 0.002,0.003 43.185,-5.495 43.673,-7.013 C -58.69,11.263 1.671,0.356 0,0"
             style="fill:#d4e6e6;fill-opacity:1;fill-rule:nonzero;stroke:none"
             id="path90"
             inkscape:connector-curvature="0" /></g></g></g><g
       id="g92"
       transform="matrix(2.6230215,0,0,2.6230215,-411.90903,-472.50863)"><g
         id="g94"
         clip-path="url(#clipPath96)"><g
           id="g100"><g
             id="g102" /><g
             id="g108"><g
               clip-path="url(#clipPath104)"
               id="g110"
               style="opacity:0.119995"><g
                 transform="translate(266.6658,224.613)"
                 id="g112"><path
                   d="M 0,0 C -47.471,-8.369 -70.105,0.04 -96.333,45.554 -97.938,44.373 -76.999,-24.106 0.168,-21.31 39.736,-19.877 97.847,8.369 89.209,80.637 76.394,34.276 44.156,7.784 0,0"
                   style="fill:#000000;fill-opacity:1;fill-rule:nonzero;stroke:none"
                   id="path114"
                   inkscape:connector-curvature="0" /></g></g></g></g></g></g><g
       id="g116"
       transform="matrix(2.6230215,0,0,2.6230215,-411.90903,-472.50863)"><g
         id="g118"
         clip-path="url(#clipPath120)"><g
           id="g124"
           transform="translate(272.6795,284.3333)"><path
             d="m 0,0 c 0,-10.527 -8.533,-19.06 -19.06,-19.06 -10.526,0 -19.06,8.533 -19.06,19.06 0,10.526 8.534,19.06 19.06,19.06 C -8.533,19.06 0,10.526 0,0"
             style="fill:#ffffff;fill-opacity:1;fill-rule:nonzero;stroke:none"
             id="path126"
             inkscape:connector-curvature="0" /></g><g
           id="g128"
           transform="translate(267.4583,284.7083)"><path
             d="m 0,0 c 0,-7.434 -6.026,-13.46 -13.46,-13.46 -7.433,0 -13.459,6.026 -13.459,13.46 0,7.434 6.026,13.46 13.459,13.46 C -6.026,13.46 0,7.434 0,0"
             style="fill:#ff0000;fill-opacity:1;fill-rule:nonzero;stroke:none"
             id="path130"
             inkscape:connector-curvature="0" /></g><g
           id="g132"
           transform="translate(265.6755,291.4748)"><path
             d="m -6.258147,-5.7767511 c 0,-2.822 -2.288,-5.1089999 -5.109,-5.1089999 -2.822,0 -5.11,2.2869999 -5.11,5.1089999 0,2.822 2.288,5.10900001 5.11,5.10900001 2.821,0 5.109,-2.28700001 5.109,-5.10900001"
             style="fill:#ffffff;fill-opacity:1;fill-rule:nonzero;stroke:none"
             id="path134"
             inkscape:connector-curvature="0" /></g></g></g><g
       id="g136"
       transform="matrix(2.6230215,0,0,2.6230215,-411.90903,-472.50863)"><g
         id="g138"
         clip-path="url(#clipPath140)"><g
           id="g144"
           transform="translate(192.9201,258.5092)"><path
             d="m 0,0 c -21.778,0.616 -23.741,10.581 -23.877,13.232 -0.013,0.265 0.277,0.43 0.499,0.286 C -21.623,12.38 -14.796,8.834 3.806,7.375 22.174,5.934 30.735,7.077 34.282,7.926 34.646,8.014 34.856,7.527 34.535,7.333 30.331,4.792 19.148,-0.542 0,0"
             style="fill:#a02c2c;fill-opacity:1;fill-rule:nonzero;stroke:none"
             id="path146"
             inkscape:connector-curvature="0" /></g></g></g><path
       transform="scale(1,-1)"
       style="color:#000000;clip-rule:nonzero;display:inline;overflow:visible;visibility:visible;opacity:1;isolation:auto;mix-blend-mode:normal;color-interpolation:sRGB;color-interpolation-filters:linearRGB;solid-color:#000000;solid-opacity:1;fill:#782121;fill-opacity:1;fill-rule:nonzero;stroke:#21474e;stroke-width:6.84719992;stroke-miterlimit:4;stroke-dasharray:none;stroke-opacity:0;color-rendering:auto;image-rendering:auto;shape-rendering:auto;text-rendering:auto;enable-background:accumulate"
       d="m 366.8178,-309.36438 34.86541,8.55102 -7.77671,-78.5097 98.8382,25.87222 -88.87409,-10.0338 21.03193,82.53128 -49.87712,-8.83899 -41.66948,38.51271 z"
       id="rect4218"
       inkscape:connector-curvature="0"
       sodipodi:nodetypes="ccccccccc" /></g></svg>